<svg xmlns="http://www.w3.org/2000/svg" width="84" height="100">
  <defs>
    <linearGradient id="a" x1="0%" x2="0%" y1="100%" y2="0%">
      <stop offset="0%" stop-color="#FF9B13"/>
      <stop offset="100%" stop-color="#FF7807"/>
    </linearGradient>
  </defs>
  <path fill-rule="evenodd" fill="url(#a)" d="M84 22v74a4 4 0 0 1-4 4H4a4 4 0 0 1-4-4V4a4 4 0 0 1 4-4h58l22 22z"/>
  <path fill-rule="evenodd" fill="#FDDBB1" d="M84 22H66a4 4 0 0 1-4-4V0l22 22z"/>
  <path fill-rule="evenodd" opacity=".6" fill="#FFF" d="M56.253 59.538l-11.282-10.91 7.527-4.642 8.493 8.122-4.738 7.43zm-6.295 5.292c-2.57 3.863-4.618 9.912-4.618 9.912l-21.827 7.253 13.152-13.752c.384.238.834.382 1.319.382a2.515 2.515 0 1 0-2.515-2.516c0 .281.056.545.141.797L22.987 81.312c1.547-6.646 5.86-22.411 5.86-22.411s6.403-1.881 10.077-3.88c3.451-1.877 4.904-3.678 4.904-3.678l9.809 9.808s-2.14 1.366-3.679 3.679z"/>
  <path fill-rule="evenodd" fill="#FFF" d="M25.481 12.259a1.184 1.184 0 0 1-1.187-1.174c0-.645.534-1.173 1.187-1.173.652 0 1.186.528 1.186 1.173 0 .646-.534 1.174-1.186 1.174zm-5.645 11.125h-.158c-.692 1.124-1.859 1.74-3.283 1.74-2.067 0-3.599-1.212-3.599-3.138 0-1.887 1.404-2.972 3.886-3.119l3.075-.185v-.958c0-1.301-.82-2.014-2.413-2.014-1.275 0-2.165.479-2.402 1.31h-1.721c.227-1.692 1.908-2.806 4.183-2.806 2.601 0 4.054 1.32 4.054 3.51v7.214h-1.622v-1.554zm-.079-3.344l-2.867.186c-1.622.108-2.334.665-2.334 1.721 0 1.075.92 1.701 2.156 1.701 1.75 0 3.045-1.134 3.045-2.64v-.968zm6.574 4.898H24.63V14.4h1.701v10.538z"/>
</svg>
