<svg xmlns="http://www.w3.org/2000/svg" width="84" height="100">
  <defs>
    <linearGradient id="a" x1="0%" x2="0%" y1="100%" y2="0%">
      <stop offset="0%" stop-color="#7CBD38"/>
      <stop offset="100%" stop-color="#58A31B"/>
    </linearGradient>
  </defs>
  <path fill-rule="evenodd" fill="url(#a)" d="M84 22v74a4 4 0 0 1-4 4H4a4 4 0 0 1-4-4V4a4 4 0 0 1 4-4h58l22 22z"/>
  <path fill-rule="evenodd" fill="#C3DFA4" d="M84 22H66a4 4 0 0 1-4-4V0l22 22z"/>
  <path fill-rule="evenodd" opacity=".6" fill="#FFF" d="M60.994 80.99c-1.661 0-3.008-1.491-3.008-3.329V64.345c0-1.838 1.347-3.329 3.008-3.329s3.008 1.49 3.008 3.329v13.316c0 1.838-1.347 3.329-3.008 3.329zm-8.359.025H29.013V63.006H56.01v18.009h-3.375zm3.375-21H29.013c0-4.436 2.183-8.357 5.529-10.794l-1.735-2.98a.837.837 0 0 1 .309-1.143.849.849 0 0 1 1.154.306l1.691 2.906a13.5 13.5 0 0 1 6.55-1.687c2.379 0 4.61.614 6.551 1.685l1.689-2.902a.843.843 0 0 1 1.152-.308.832.832 0 0 1 .311 1.145l-1.733 2.978c3.346 2.437 5.529 6.358 5.529 10.794zm-18.561-8.37c-.933 0-1.687.748-1.687 1.674a1.68 1.68 0 0 0 1.687 1.674 1.68 1.68 0 0 0 1.688-1.674 1.68 1.68 0 0 0-1.688-1.674zm10.124 0c-.933 0-1.687.748-1.687 1.674a1.68 1.68 0 0 0 1.687 1.674 1.68 1.68 0 0 0 1.688-1.674c0-.926-.754-1.674-1.688-1.674zM23.997 80.99c-1.66 0-3.008-1.491-3.008-3.329V64.345c0-1.838 1.348-3.329 3.008-3.329 1.661 0 3.009 1.49 3.009 3.329v13.316c0 1.838-1.348 3.329-3.009 3.329z"/>
  <path fill-rule="evenodd" fill="#FFF" d="M46.368 25.167h-2.166l-3.995-4.938-1.018.939v3.999h-1.701V10.443h1.701v8.789h.158l4.628-4.604h2.086l-4.588 4.516 4.895 6.023zm-16.115.185c-1.523 0-2.749-.655-3.332-1.769h-.159v5.103h-1.7V14.628h1.621v1.759h.158c.683-1.212 1.958-1.945 3.412-1.945 2.719 0 4.48 2.141 4.48 5.455 0 3.295-1.77 5.455-4.48 5.455zm-.395-9.395c-1.929 0-3.145 1.516-3.145 3.94 0 2.415 1.216 3.94 3.135 3.94 1.958 0 3.124-1.476 3.124-3.94s-1.166-3.94-3.114-3.94zm-9.551 7.655h-.158c-.692 1.124-1.859 1.74-3.283 1.74-2.067 0-3.599-1.212-3.599-3.138 0-1.887 1.404-2.972 3.886-3.119l3.075-.185v-.958c0-1.301-.82-2.014-2.413-2.014-1.275 0-2.165.479-2.403 1.31h-1.72c.227-1.692 1.908-2.806 4.183-2.806 2.6 0 4.054 1.32 4.054 3.51v7.215h-1.622v-1.555zm-.079-3.343l-2.867.185c-1.622.108-2.334.665-2.334 1.721 0 1.075.919 1.701 2.156 1.701 1.75 0 3.045-1.134 3.045-2.64v-.967z"/>
</svg>
