<svg xmlns="http://www.w3.org/2000/svg" width="84" height="100">
  <defs>
    <linearGradient id="a" x1="0%" x2="0%" y1="100%" y2="0%">
      <stop offset="0%" stop-color="#98BCCD"/>
      <stop offset="100%" stop-color="#76A1B7"/>
    </linearGradient>
  </defs>
  <path fill-rule="evenodd" fill="url(#a)" d="M84 22v74a4 4 0 0 1-4 4H4a4 4 0 0 1-4-4V4a4 4 0 0 1 4-4h58l22 22z"/>
  <path fill-rule="evenodd" fill="#BEEAFF" d="M84 22H66a4 4 0 0 1-4-4V0l22 22z"/>
  <path fill-rule="evenodd" opacity=".6" fill="#FFF" d="M63.794 62.015H20.225c-.668 0-1.21-.56-1.21-1.251v-2.502c0-.691.542-1.252 1.21-1.252h43.569c.668 0 1.21.561 1.21 1.252v2.502c0 .691-.542 1.251-1.21 1.251zm0-15.015H20.225c-.668 0-1.21-.56-1.21-1.251v-2.503c0-.691.542-1.251 1.21-1.251h43.569c.668 0 1.21.56 1.21 1.251v2.503c0 .691-.542 1.251-1.21 1.251zM20.187 70.994h43.62c.661 0 1.197.56 1.197 1.251v2.502c0 .691-.536 1.252-1.197 1.252h-43.62c-.661 0-1.197-.561-1.197-1.252v-2.502c0-.691.536-1.251 1.197-1.251z"/>
  <path fill-rule="evenodd" fill="#FFF" d="M50.047 25.167v-6.893c0-1.554-.742-2.317-2.245-2.317-1.483 0-2.472 1.095-2.472 2.435v6.775h-1.701V18.01c0-1.251-.88-2.053-2.225-2.053-1.394 0-2.472 1.193-2.472 2.679v6.531h-1.701V14.628h1.622v1.662h.158c.485-1.174 1.553-1.848 2.976-1.848 1.444 0 2.453.753 2.947 1.848h.159c.573-1.115 1.789-1.848 3.263-1.848 2.175 0 3.392 1.232 3.392 3.441v7.284h-1.701zm-17.609-6.414c0-1.867-.85-2.796-2.462-2.796-1.909 0-2.957 1.193-2.957 2.972v6.238h-1.701V10.443h1.701v5.847h.159c.534-1.164 1.651-1.848 3.283-1.848 2.254 0 3.678 1.427 3.678 3.901v6.824h-1.701v-6.414zm-14.187 5.084c1.433 0 2.432-.655 2.749-1.848h1.72c-.306 1.936-1.898 3.363-4.46 3.363-2.986 0-4.894-2.141-4.894-5.494 0-3.285 1.898-5.416 4.885-5.416 2.59 0 4.173 1.535 4.469 3.412H21c-.277-1.046-1.217-1.897-2.749-1.897-1.919 0-3.125 1.516-3.125 3.901 0 2.434 1.226 3.979 3.125 3.979z"/>
</svg>
