<svg xmlns="http://www.w3.org/2000/svg" width="84" height="100">
  <defs>
    <linearGradient id="a" x1="0%" x2="0%" y1="100%" y2="0%">
      <stop offset="0%" stop-color="#C1917F"/>
      <stop offset="100%" stop-color="#A76D5A"/>
    </linearGradient>
  </defs>
  <path fill-rule="evenodd" fill="url(#a)" d="M84 22v74a4 4 0 0 1-4 4H4a4 4 0 0 1-4-4V4a4 4 0 0 1 4-4h58l22 22z"/>
  <path fill-rule="evenodd" fill="#D4957F" d="M84 22H66a4 4 0 0 1-4-4V0l22 22z"/>
  <path fill-rule="evenodd" opacity=".6" fill="#FFF" d="M64.796 63.83l-.039.064a1.31 1.31 0 0 1-.362.388c-.118.179-.264.34-.46.45l-11.639 6.512a1.254 1.254 0 0 1-1.756-.552 1.426 1.426 0 0 1 .571-1.855l10.122-5.663-9.212-6.032a1.37 1.37 0 0 1-.402-1.851l.039-.064a1.27 1.27 0 0 1 1.787-.417l10.948 7.169c.605.396.785 1.225.403 1.851zM38.238 74.999l6.083-23.994h2.433l-6.083 23.994h-2.433zm-5.541-3.755l-11.64-6.512a1.357 1.357 0 0 1-.46-.45 1.32 1.32 0 0 1-.361-.388l-.039-.064a1.37 1.37 0 0 1 .402-1.851l10.949-7.169a1.27 1.27 0 0 1 1.787.417l.039.064c.382.626.202 1.455-.403 1.851l-9.211 6.032 10.121 5.663c.643.359.899 1.19.572 1.855a1.254 1.254 0 0 1-1.756.552z"/>
  <path fill-rule="evenodd" fill="#FFF" d="M39.087 15.869c-1.266 0-2.255.636-2.255 1.574 0 .724.593 1.173 1.849 1.476l1.642.392c2.007.479 2.976 1.339 2.976 2.854 0 1.887-1.849 3.187-4.272 3.187-2.373 0-4.004-1.124-4.192-2.874h1.75c.287.89 1.137 1.457 2.502 1.457 1.434 0 2.462-.675 2.462-1.643 0-.723-.554-1.212-1.691-1.486l-1.829-.44c-1.998-.479-2.908-1.329-2.908-2.854 0-1.75 1.711-3.07 3.976-3.07 2.234 0 3.787 1.095 4.014 2.825H41.43c-.227-.84-1.058-1.398-2.343-1.398zm-10.995 3.05l1.642.392c2.007.479 2.976 1.339 2.976 2.854 0 1.887-1.849 3.187-4.272 3.187-2.373 0-4.005-1.124-4.192-2.874h1.75c.287.89 1.137 1.457 2.502 1.457 1.434 0 2.462-.675 2.462-1.643 0-.723-.554-1.212-1.691-1.486l-1.829-.44c-1.998-.479-2.908-1.329-2.908-2.854 0-1.75 1.711-3.07 3.976-3.07 2.234 0 3.787 1.095 4.014 2.825h-1.681c-.227-.84-1.058-1.398-2.343-1.398-1.266 0-2.255.636-2.255 1.574 0 .724.593 1.173 1.849 1.476zm-10.281 4.918c1.433 0 2.432-.655 2.749-1.848h1.72c-.306 1.936-1.898 3.363-4.46 3.363-2.986 0-4.894-2.141-4.894-5.494 0-3.285 1.898-5.416 4.885-5.416 2.59 0 4.173 1.535 4.469 3.412h-1.72c-.277-1.046-1.217-1.897-2.749-1.897-1.919 0-3.125 1.516-3.125 3.901 0 2.434 1.226 3.979 3.125 3.979z"/>
</svg>
