<svg xmlns="http://www.w3.org/2000/svg" width="84" height="100">
  <defs>
    <linearGradient id="a" x1="0%" x2="0%" y1="100%" y2="0%">
      <stop offset="0%" stop-color="#C1917F"/>
      <stop offset="100%" stop-color="#A76D5A"/>
    </linearGradient>
  </defs>
  <path fill-rule="evenodd" fill="url(#a)" d="M84 22v74a4 4 0 0 1-4 4H4a4 4 0 0 1-4-4V4a4 4 0 0 1 4-4h58l22 22z"/>
  <path fill-rule="evenodd" fill="#D4957F" d="M84 22H66a4 4 0 0 1-4-4V0l22 22z"/>
  <path fill-rule="evenodd" opacity=".6" fill="#FFF" d="M64.796 63.83l-.04.064c-.096.159-.22.288-.361.388-.118.179-.264.34-.46.45l-11.639 6.512a1.254 1.254 0 0 1-1.756-.552 1.426 1.426 0 0 1 .571-1.855l10.122-5.663-9.212-6.032a1.37 1.37 0 0 1-.402-1.851l.039-.064a1.27 1.27 0 0 1 1.787-.417l10.948 7.169c.605.396.785 1.225.403 1.851zM38.238 74.999l6.083-23.994h2.433l-6.083 23.994h-2.433zm-5.541-3.755l-11.64-6.512a1.357 1.357 0 0 1-.46-.45 1.32 1.32 0 0 1-.361-.388l-.039-.064a1.37 1.37 0 0 1 .402-1.851l10.949-7.169a1.268 1.268 0 0 1 1.786.417l.04.064c.382.626.202 1.455-.403 1.851l-9.211 6.032 10.121 5.663c.643.359.899 1.19.572 1.855a1.254 1.254 0 0 1-1.756.552z"/>
  <path fill-rule="evenodd" fill="#FFF" d="M50.521 25.167V10.443h1.701v14.724h-1.701zm-4.885-6.893c0-1.554-.742-2.317-2.245-2.317-1.483 0-2.472 1.095-2.472 2.435v6.775h-1.701V18.01c0-1.251-.88-2.053-2.225-2.053-1.394 0-2.472 1.193-2.472 2.679v6.531H32.82V14.628h1.622v1.662h.158c.485-1.174 1.553-1.848 2.977-1.848 1.443 0 2.452.753 2.946 1.848h.159c.573-1.115 1.789-1.848 3.263-1.848 2.175 0 3.392 1.232 3.392 3.441v7.284h-1.701v-6.893zm-19.453 4.155v-6.394h-1.721v-1.407h1.721V11.9h1.701v2.728h2.373v1.407h-2.373v5.964c0 1.242.475 1.77 1.582 1.77.307 0 .475-.01.791-.04v1.418a5.721 5.721 0 0 1-.999.098c-2.195 0-3.075-.802-3.075-2.816zm-5.505-3.676c0-1.867-.85-2.796-2.462-2.796-1.909 0-2.957 1.193-2.957 2.972v6.238h-1.701V10.443h1.701v5.847h.158c.534-1.164 1.652-1.848 3.284-1.848 2.254 0 3.678 1.427 3.678 3.901v6.824h-1.701v-6.414z"/>
</svg>
