<svg xmlns="http://www.w3.org/2000/svg" width="84" height="100">
  <defs>
    <linearGradient id="a" x1="0%" x2="0%" y1="100%" y2="0%">
      <stop offset="0%" stop-color="#98BCCD"/>
      <stop offset="100%" stop-color="#76A1B7"/>
    </linearGradient>
  </defs>
  <path fill-rule="evenodd" fill="url(#a)" d="M84 22v74a4 4 0 0 1-4 4H4a4 4 0 0 1-4-4V4a4 4 0 0 1 4-4h58l22 22z"/>
  <path fill-rule="evenodd" fill="#BEEAFF" d="M84 22H66a4 4 0 0 1-4-4V0l22 22z"/>
  <path fill-rule="evenodd" opacity=".6" fill="#FFF" d="M63.794 62.015H20.225c-.668 0-1.21-.56-1.21-1.251v-2.502c0-.691.542-1.252 1.21-1.252h43.569c.668 0 1.21.561 1.21 1.252v2.502c0 .691-.542 1.251-1.21 1.251zm0-15.015H20.225c-.668 0-1.21-.56-1.21-1.251v-2.503c0-.691.542-1.251 1.21-1.251h43.569c.668 0 1.21.56 1.21 1.251v2.503c0 .691-.542 1.251-1.21 1.251zM20.187 70.994h43.62c.661 0 1.197.56 1.197 1.251v2.502c0 .691-.536 1.252-1.197 1.252h-43.62c-.661 0-1.198-.561-1.198-1.252v-2.502c0-.691.537-1.251 1.198-1.251z"/>
  <path fill-rule="evenodd" fill="#FFF" d="M34.339 29.214c-2.571 0-4.212-1.144-4.469-2.884h1.799c.188.86 1.138 1.417 2.67 1.417 1.909 0 3.046-.928 3.046-2.483v-2.072h-.158c-.673 1.163-1.879 1.818-3.343 1.818-2.759 0-4.469-2.112-4.469-5.269 0-3.158 1.73-5.299 4.469-5.299 1.494 0 2.809.723 3.422 1.857h.158v-1.671h1.622v10.724c0 2.356-1.839 3.862-4.747 3.862zm-.079-13.257c-1.978 0-3.085 1.486-3.085 3.784 0 2.297 1.107 3.783 3.085 3.783s3.165-1.486 3.165-3.783c0-2.298-1.197-3.784-3.165-3.784zm-11.883 9.395c-3.036 0-4.914-2.072-4.914-5.455 0-3.392 1.878-5.455 4.914-5.455 3.036 0 4.915 2.063 4.915 5.455 0 3.383-1.879 5.455-4.915 5.455zm0-9.395c-2.017 0-3.154 1.437-3.154 3.94 0 2.493 1.137 3.94 3.154 3.94s3.155-1.447 3.155-3.94c0-2.503-1.138-3.94-3.155-3.94zm-9.379-5.514h1.701v14.724h-1.701V10.443z"/>
</svg>
