<svg xmlns="http://www.w3.org/2000/svg" width="84" height="100">
  <defs>
    <linearGradient id="a" x1="0%" x2="0%" y1="100%" y2="0%">
      <stop offset="0%" stop-color="#28B1FB"/>
      <stop offset="100%" stop-color="#1292F9"/>
    </linearGradient>
  </defs>
  <path fill-rule="evenodd" fill="url(#a)" d="M84 22v74a4 4 0 0 1-4 4H4a4 4 0 0 1-4-4V4a4 4 0 0 1 4-4h58l22 22z"/>
  <path fill-rule="evenodd" fill="#B1DAFD" d="M84 22H66a4 4 0 0 1-4-4V0l22 22z"/>
  <path fill-rule="evenodd" opacity=".6" fill="#FFF" d="M38.38 64.488s8.168-4.9 12.766-2.965a93.133 93.133 0 0 0 2.811-4.614c-4.498-1.102-10.451-.11-10.451-.11s7.618-4.571 12.281-3.14c.935-1.686 1.845-3.35 2.722-4.898-3.716-.251-7.314.349-7.314.349s4.772-2.863 9.074-3.348c1.353-2.197 2.61-3.92 3.741-4.768-22.466 0-35.882 25.63-41.008 41.008h2.563l7.689-12.815s2.563 2.563 10.252 0c1.821-.607 3.642-2.293 5.429-4.563-4.509-1.144-10.555-.136-10.555-.136z"/>
  <path fill-rule="evenodd" fill="#FFF" d="M42.844 25.446v-1.641h-.154c-.657 1.145-1.892 1.822-3.33 1.822-2.663 0-4.371-2.089-4.371-5.323 0-3.225 1.727-5.324 4.371-5.324 1.448 0 2.673.677 3.262 1.803h.145v-5.705h1.66v14.368h-1.583zm-3.098-8.987c-1.891 0-3.04 1.45-3.04 3.845 0 2.404 1.139 3.844 3.04 3.844 1.892 0 3.059-1.469 3.059-3.844 0-2.357-1.177-3.845-3.059-3.845zm-11.338 2.89l1.602.382c1.959.468 2.904 1.307 2.904 2.786 0 1.841-1.804 3.11-4.169 3.11-2.316 0-3.908-1.097-4.091-2.805h1.708c.28.868 1.11 1.422 2.441 1.422 1.4 0 2.403-.658 2.403-1.603 0-.706-.54-1.183-1.65-1.45l-1.785-.43c-1.95-.467-2.837-1.297-2.837-2.785 0-1.708 1.669-2.996 3.879-2.996 2.181 0 3.696 1.068 3.918 2.757H31.09c-.221-.82-1.032-1.364-2.287-1.364-1.235 0-2.2.62-2.2 1.536 0 .706.579 1.145 1.805 1.44zM18.21 25.627c-1.487 0-2.683-.639-3.253-1.727h-.154v4.981h-1.66v-13.72h1.583v1.717h.154c.666-1.183 1.911-1.898 3.33-1.898 2.653 0 4.371 2.089 4.371 5.324 0 3.215-1.727 5.323-4.371 5.323zm-.387-9.168c-1.881 0-3.068 1.478-3.068 3.845 0 2.356 1.187 3.844 3.059 3.844 1.911 0 3.049-1.44 3.049-3.844 0-2.405-1.138-3.845-3.04-3.845z"/>
</svg>
