<?xml version="1.0" standalone="no"?>
<!DOCTYPE svg PUBLIC "-//W3C//DTD SVG 1.1//EN" "http://www.w3.org/Graphics/SVG/1.1/DTD/svg11.dtd" >
<svg xmlns="http://www.w3.org/2000/svg">
<metadata>Generated by IcoMoon</metadata>
<defs>
<font id="dzz" horiz-adv-x="1024">
<font-face units-per-em="1024" ascent="960" descent="-64" />
<missing-glyph horiz-adv-x="1024" />
<glyph unicode="&#x20;" horiz-adv-x="512" d="" />
<glyph unicode="&#xe900;" glyph-name="account-box" d="M603.136 580.438v142.421l-240.469 119.125-240.469-119.125v-661.717l795.307-0.043v519.339h-314.368zM318.464 146.219h-79.573v516.907h79.573c0 0 0-516.907 0-516.907zM490.88 146.219h-79.531v516.907h79.573l-0.043-516.907zM825.344 201.302h-182.229v79.573h182.229v-79.573zM825.344 386.219h-182.229v79.573h182.229v-79.573z" />
<glyph unicode="&#xe901;" glyph-name="account-circle" d="M512 853.334c-235.52 0-426.667-191.147-426.667-426.667s191.147-426.667 426.667-426.667 426.667 191.147 426.667 426.667-191.147 426.667-426.667 426.667zM512 725.334c70.827 0 128-57.173 128-128s-57.173-128-128-128-128 57.173-128 128 57.173 128 128 128zM512 119.467c-106.667 0-200.96 54.613-256 137.387 1.28 84.907 170.667 131.413 256 131.413 84.907 0 254.72-46.507 256-131.413-55.040-82.773-149.333-137.387-256-137.387z" />
<glyph unicode="&#xe902;" glyph-name="add" d="M810.667 384h-256v-256h-85.333v256h-256v85.333h256v256h85.333v-256h256v-85.333z" />
<glyph unicode="&#xe903;" glyph-name="add-circle" d="M512 853.334c-235.52 0-426.667-191.147-426.667-426.667s191.147-426.667 426.667-426.667 426.667 191.147 426.667 426.667-191.147 426.667-426.667 426.667zM725.333 384h-170.667v-170.667h-85.333v170.667h-170.667v85.333h170.667v170.667h85.333v-170.667h170.667v-85.333z" />
<glyph unicode="&#xe904;" glyph-name="alarm" d="M938.667 694.614l-196.267 164.693-55.040-65.28 196.267-164.693 55.040 65.28zM336.213 794.027l-54.613 65.28-196.267-164.267 55.040-65.28 195.84 164.267zM533.333 597.334h-64v-256l202.667-121.6 32 52.48-170.667 101.12v224zM512 768c-212.053 0-384-171.947-384-384s171.52-384 384-384c212.053 0 384 171.947 384 384s-171.947 384-384 384zM512 85.334c-165.12 0-298.667 133.547-298.667 298.667s133.547 298.667 298.667 298.667 298.667-133.547 298.667-298.667-133.547-298.667-298.667-298.667z" />
<glyph unicode="&#xe905;" glyph-name="all-check" d="M606.251 524.203c0 64.384-51.968 116.352-116.352 116.352s-116.352-51.968-116.352-116.352 51.968-116.352 116.352-116.352 116.352 51.968 116.352 116.352zM518.272 327.040c-14.848 0-32.725-2.048-53.632-6.187s-37.632-9.515-50.133-16.171v-59.136c29.184 18.987 60.245 28.501 93.269 28.501 33.493 0 50.261-15.275 50.261-45.824l-75.989-9.771c-63.147-8.192-94.763-37.504-94.763-87.893 0-24.363 7.893-43.648 23.637-57.813s36.693-21.248 62.891-21.248c36.352 0 63.915 14.891 82.731 44.672h0.981v-38.229h76.757v158.677c-0.043 73.643-38.699 110.421-116.011 110.421zM557.995 164.608c0-16.469-5.333-30.251-16-41.301-10.667-11.136-24.235-16.683-40.747-16.683-11.989 0-21.547 3.029-28.629 9.045s-10.624 13.909-10.624 23.765c0 21.376 14.592 33.877 43.733 37.547l52.267 6.4v-18.773zM692.011 57.984h80.512v388.779h-80.512v-388.779zM910.677 510.763c1.92 4.48 4.096 8.875 5.888 13.44-67.115 170.283-232.747 290.901-426.667 290.901s-359.552-120.619-426.667-290.901c50.304-127.616 155.904-227.285 287.275-269.269v49.792c0 23.68 12.971 45.355 33.877 56.448 0.213 0.128 0.469 0.171 0.683 0.299-53.461 34.56-89.088 94.379-89.088 162.731 0 107.051 86.869 193.92 193.92 193.92s193.92-86.869 193.92-193.92c0-4.949-1.109-9.557-1.451-14.421 3.157 0.469 6.315 0.981 9.643 0.981h80.512c7.424 0 15.104-1.493 22.741-4.437 2.475-0.939 5.035-1.408 7.637-1.408s5.163 0.469 7.637 1.408c7.68 2.901 15.317 4.437 22.784 4.437h77.355zM833.28 57.984h80.512v388.779h-80.512v-388.779z" />
<glyph unicode="&#xe906;" glyph-name="all-copy" d="M716.8 766.422c0 47.147-38.187 85.333-85.333 85.333h-426.667c-47.147 0-85.333-38.187-85.333-85.333v-512c0-47.147 38.187-85.333 85.333-85.333v512c0 47.147 38.187 85.333 85.333 85.333h426.667zM513.28 284.032c-14.848 0-32.725-2.048-53.632-6.187s-37.632-9.515-50.133-16.171v-59.136c29.184 18.987 60.245 28.501 93.269 28.501 33.493 0 50.261-15.275 50.261-45.824l-75.989-9.771c-63.147-8.192-94.763-37.504-94.763-87.893 0-24.363 7.893-43.648 23.637-57.813s36.693-21.248 62.891-21.248c36.352 0 63.915 14.891 82.731 44.672h0.981v-38.229h76.757v158.677c0 73.643-38.699 110.421-116.011 110.421zM553.045 121.558c0-16.469-5.333-30.251-16-41.301-10.667-11.136-24.235-16.683-40.747-16.683-11.989 0-21.547 3.029-28.629 9.045s-10.624 13.909-10.624 23.765c0 21.376 14.592 33.877 43.733 37.547l52.267 6.4v-18.773zM687.019 14.934h80.512v388.779h-80.512v-388.779zM887.467 467.755v128c0 47.147-38.187 85.333-85.333 85.333h-426.667c-47.147 0-85.333-38.187-85.333-85.333v-512c0-35.669 21.931-66.176 53.035-78.891-16.299 23.211-24.875 51.285-24.875 82.773 0 32.896 8.448 61.525 25.131 85.205 3.413 4.821 4.651 10.837 3.456 16.597-0.896 4.395-1.365 8.789-1.365 13.184v59.136c0 23.68 12.971 45.355 33.877 56.448 18.347 9.771 40.533 17.109 67.84 22.485 25.173 4.949 46.763 7.381 66.048 7.381 29.227 0 56.363-4.821 80.64-14.336 2.517-0.939 5.163-1.451 7.765-1.451 4.224 0 8.448 1.237 12.032 3.712 5.845 3.968 9.301 10.581 9.301 17.621v50.176c0 35.285 28.715 64 64 64h80.512c7.424 0 15.104-1.493 22.741-4.437 2.475-0.939 5.035-1.408 7.637-1.408s5.163 0.469 7.637 1.408c7.68 2.901 15.317 4.437 22.784 4.437h59.136zM828.288 403.755v-388.779h80.512v388.779h-80.512z" />
<glyph unicode="&#xe907;" glyph-name="all-delete" d="M534.613 279.766c-14.848 0-32.725-2.048-53.632-6.187s-37.632-9.515-50.133-16.171v-59.136c29.184 18.987 60.245 28.501 93.269 28.501 33.493 0 50.261-15.275 50.261-45.824l-75.989-9.771c-63.147-8.192-94.763-37.504-94.763-87.893 0-24.363 7.893-43.648 23.637-57.813s36.693-21.248 62.891-21.248c36.352 0 63.915 14.891 82.731 44.672h0.981v-38.229h76.757v158.677c0 73.643-38.699 110.421-116.011 110.421zM574.379 117.291c0-16.469-5.333-30.251-16-41.301-10.667-11.136-24.235-16.683-40.747-16.683-11.989 0-21.547 3.029-28.629 9.045s-10.624 13.909-10.624 23.765c0 21.376 14.592 33.877 43.733 37.547l52.267 6.4v-18.773zM866.133 804.822h-213.333l-42.667 42.667h-256l-42.667-42.667h-213.333v-85.333h768v85.333zM780.8 463.488v213.333h-597.333v-584.149c0-54.4 44.117-98.517 98.517-98.517h87.893c-19.584 24.405-30.293 54.613-30.293 89.216 0 31.744 8.064 59.435 23.637 82.645-13.269-1.877-27.093 1.579-37.291 11.776-17.237 17.237-17.237 45.227 0 62.464l49.92 49.92c5.035 8.491 12.331 15.403 20.864 20.864l22.955 22.955-93.696 93.653c-17.237 17.237-17.237 45.227 0 62.464s45.227 17.237 62.464 0l93.696-93.696 93.696 93.696c17.237 17.237 45.227 17.237 62.464 0s17.237-45.227 0-62.464l-85.419-85.419c22.144-1.621 43.349-5.333 62.379-12.757 2.517-0.939 5.163-1.451 7.765-1.451 4.224 0 8.448 1.237 12.032 3.712 5.845 3.968 9.301 10.581 9.301 17.621v50.176c0 35.285 28.715 64 64 64h72.448zM708.352 10.667h80.512v388.779h-80.512v-388.779zM849.621 399.488v-388.779h80.512v388.779h-80.512z" />
<glyph unicode="&#xe908;" glyph-name="all-download" d="M104.021 96.555v-85.333h229.12c-18.816 23.424-29.184 52.395-29.952 85.333h-199.168zM658.688 480.555v371.2h-341.333v-371.2h-121.899l156.587-158.208c3.669 3.2 7.509 6.272 11.904 8.619 18.347 9.771 40.533 17.109 67.84 22.485 25.173 4.949 46.763 7.381 66.048 7.381 29.227 0 56.363-4.821 80.64-14.336 2.517-0.939 5.163-1.451 7.765-1.451 4.224 0 8.448 1.237 12.032 3.712 5.845 3.968 9.301 10.581 9.301 17.621v50.176c0 35.285 28.715 64 64 64h-12.885zM497.835 296.832c-14.848 0-32.725-2.048-53.632-6.187s-37.632-9.515-50.133-16.171v-59.136c29.184 18.987 60.245 28.501 93.269 28.501 33.493 0 50.261-15.275 50.261-45.824l-75.989-9.771c-63.147-8.192-94.763-37.504-94.763-87.893 0-24.363 7.893-43.648 23.637-57.813s36.693-21.248 62.891-21.248c36.352 0 63.915 14.891 82.731 44.672h0.981v-38.229h76.757v158.677c0 73.643-38.699 110.421-116.011 110.421zM537.557 134.358c0-16.469-5.333-30.251-16-41.301-10.667-11.136-24.235-16.683-40.747-16.683-11.989 0-21.547 3.029-28.629 9.045s-10.624 13.909-10.624 23.765c0 21.376 14.592 33.877 43.733 37.547l52.267 6.4v-18.773zM671.573 27.734h80.512v388.779h-80.512v-388.779zM774.827 476.118c2.048-0.811 4.181-1.024 6.315-1.152l5.547 5.589h-34.603c7.424 0 15.061-1.493 22.741-4.437zM812.843 416.555v-388.779h80.512v388.779h-80.512z" />
<glyph unicode="&#xe909;" glyph-name="all-edit" d="M543.147 313.942c-14.848 0-32.725-2.048-53.632-6.187s-37.632-9.515-50.133-16.171v-59.136c29.184 18.987 60.245 28.501 93.269 28.501 33.493 0 50.261-15.275 50.261-45.824l-75.989-9.771c-63.147-8.192-94.763-37.504-94.763-87.893 0-24.363 7.893-43.648 23.637-57.813s36.693-21.248 62.891-21.248c36.352 0 63.915 14.891 82.731 44.672h0.981v-38.229h76.757v158.677c0 73.643-38.699 110.421-116.011 110.421zM582.912 151.467c0-16.469-5.333-30.251-16-41.301-10.667-11.136-24.235-16.683-40.747-16.683-11.989 0-21.547 3.029-28.629 9.045s-10.624 13.909-10.624 23.765c0 21.376 14.592 33.877 43.733 37.547l52.267 6.4v-18.773zM134.827 113.664c-23.552 0-42.667-19.115-42.667-42.667s19.115-42.667 42.667-42.667h243.627c-18.816 23.424-29.184 52.395-29.952 85.333h-213.675zM134.827 326.998v-128h128l118.784 118.784c5.717 12.629 14.976 23.552 27.691 30.336 1.365 0.725 3.157 1.237 4.565 1.92l275.669 275.669-128 128-426.709-426.709zM604.16 796.331l128-128 85.333 85.333-128 128-85.333-85.333zM716.885 44.843h80.512v388.779h-80.512v-388.779zM858.155 433.664v-388.779h80.512v388.779h-80.512z" />
<glyph unicode="&#xe90a;" d="M87.296 825.046h852.011v-389.333h-852.011v389.333z" />
<glyph unicode="&#xe90b;" d="M411.691 611.030c0-8.363-6.784-15.104-15.104-15.104v0c-8.363 0-15.104 6.784-15.104 15.104v65.792c0 8.363 6.784 15.104 15.104 15.104v0c8.363 0 15.104-6.784 15.104-15.104v-65.792z" />
<glyph unicode="&#xe90c;" d="M630.016 624.896c8.363 0 15.104-6.784 15.104-15.104v0c0-8.363-6.784-15.104-15.104-15.104h-232.192c-8.363 0-15.104 6.784-15.104 15.104v0c0 8.363 6.784 15.104 15.104 15.104h232.192z" />
<glyph unicode="&#xe90d;" d="M644.821 611.030c0-8.363-6.784-15.104-15.104-15.104v0c-8.363 0-15.104 6.784-15.104 15.104v65.792c0 8.363 6.784 15.104 15.104 15.104v0c8.363 0 15.104-6.784 15.104-15.104v-65.792z" />
<glyph unicode="&#xe90e;" d="M87.296 407.723h852.011v-389.333h-852.011v389.333z" />
<glyph unicode="&#xe90f;" d="M411.691 193.707c0-8.363-6.784-15.104-15.104-15.104v0c-8.363 0-15.104 6.784-15.104 15.104v65.792c0 8.363 6.784 15.104 15.104 15.104v0c8.363 0 15.104-6.784 15.104-15.104v-65.792z" />
<glyph unicode="&#xe910;" d="M630.016 207.574c8.363 0 15.104-6.784 15.104-15.104v0c0-8.363-6.784-15.104-15.104-15.104h-232.192c-8.363 0-15.104 6.784-15.104 15.104v0c0 8.363 6.784 15.104 15.104 15.104h232.192z" />
<glyph unicode="&#xe911;" d="M644.821 193.707c0-8.363-6.784-15.104-15.104-15.104v0c-8.363 0-15.104 6.784-15.104 15.104v65.792c0 8.363 6.784 15.104 15.104 15.104v0c8.363 0 15.104-6.784 15.104-15.104v-65.792z" />
<glyph unicode="&#xe912;" glyph-name="announcement" d="M853.333 853.334h-682.667c-46.933 0-84.907-38.4-84.907-85.333l-0.427-768 170.667 170.667h597.333c46.933 0 85.333 38.4 85.333 85.333v512c0 46.933-38.4 85.333-85.333 85.333zM554.667 469.334h-85.333v256h85.333v-256zM554.667 298.667h-85.333v85.333h85.333v-85.333z" />
<glyph unicode="&#xe913;" glyph-name="apps" d="M170.667 597.334h170.667v170.667h-170.667v-170.667zM426.667 85.334h170.667v170.667h-170.667v-170.667zM170.667 85.334h170.667v170.667h-170.667v-170.667zM170.667 341.334h170.667v170.667h-170.667v-170.667zM426.667 341.334h170.667v170.667h-170.667v-170.667zM682.667 768v-170.667h170.667v170.667h-170.667zM426.667 597.334h170.667v170.667h-170.667v-170.667zM682.667 341.334h170.667v170.667h-170.667v-170.667zM682.667 85.334h170.667v170.667h-170.667v-170.667z" />
<glyph unicode="&#xe914;" glyph-name="archive" d="M876.373 715.52l-59.307 71.68c-11.52 14.507-29.013 23.467-49.067 23.467h-512c-20.053 0-37.547-8.96-49.493-23.467l-58.88-71.68c-12.373-14.507-19.627-33.707-19.627-54.187v-533.333c0-46.933 38.4-85.333 85.333-85.333h597.333c46.933 0 85.333 38.4 85.333 85.333v533.333c0 20.48-7.253 39.68-19.627 54.187zM512 192l-234.667 234.667h149.333v85.333h170.667v-85.333h149.333l-234.667-234.667zM218.453 725.334l34.56 42.667h512l40.107-42.667h-586.667z" />
<glyph unicode="&#xe915;" glyph-name="arrow-back" d="M853.333 469.334h-519.253l238.507 238.507-60.587 60.16-341.333-341.333 341.333-341.333 60.16 60.16-238.080 238.507h519.253v85.333z" />
<glyph unicode="&#xe916;" glyph-name="arrow-dropdown" d="M298.667 512l213.333-213.333 213.333 213.333z" />
<glyph unicode="&#xe917;" glyph-name="arrow-dropleft" d="M576 643.542l-213.333-213.333 213.333-213.333v426.667z" />
<glyph unicode="&#xe918;" glyph-name="arrow-dropright" d="M405.333 216.875l213.333 213.333-213.333 213.333v-426.667z" />
<glyph unicode="&#xe919;" glyph-name="arrow-dropup" d="M298.667 341.334l213.333 213.333 213.333-213.333z" />
<glyph unicode="&#xe91a;" glyph-name="arrow-forward" d="M512 768l-60.16-60.16 238.080-238.507h-519.253v-85.333h519.253l-238.080-238.507 60.16-60.16 341.333 341.333z" />
<glyph unicode="&#xe91b;" glyph-name="aspect-ratio" d="M810.667 426.667h-85.333v-128h-128v-85.333h213.333v213.333zM298.667 554.667h128v85.333h-213.333v-213.333h85.333v128zM896 810.667h-768c-46.933 0-85.333-38.4-85.333-85.333v-597.333c0-46.933 38.4-85.333 85.333-85.333h768c46.933 0 85.333 38.4 85.333 85.333v597.333c0 46.933-38.4 85.333-85.333 85.333zM896 127.574h-768v598.187h768v-598.187z" />
<glyph unicode="&#xe91c;" glyph-name="assignment" d="M810.667 810.667h-178.347c-17.92 49.493-64.853 85.333-120.32 85.333s-102.4-35.84-120.32-85.333h-178.347c-46.933 0-85.333-38.4-85.333-85.333v-597.333c0-46.933 38.4-85.333 85.333-85.333h597.333c46.933 0 85.333 38.4 85.333 85.333v597.333c0 46.933-38.4 85.333-85.333 85.333zM512 810.667c23.467 0 42.667-19.2 42.667-42.667s-19.2-42.667-42.667-42.667-42.667 19.2-42.667 42.667 19.2 42.667 42.667 42.667zM597.333 213.334h-298.667v85.333h298.667v-85.333zM725.333 384h-426.667v85.333h426.667v-85.333zM725.333 554.667h-426.667v85.333h426.667v-85.333z" />
<glyph unicode="&#xe91d;" glyph-name="assignment_turned" d="M810.667 810.667h-178.347c-17.92 49.493-64.853 85.333-120.32 85.333s-102.4-35.84-120.32-85.333h-178.347c-46.933 0-85.333-38.4-85.333-85.333v-597.333c0-46.933 38.4-85.333 85.333-85.333h597.333c46.933 0 85.333 38.4 85.333 85.333v597.333c0 46.933-38.4 85.333-85.333 85.333zM512 810.667c23.467 0 42.667-19.2 42.667-42.667s-19.2-42.667-42.667-42.667-42.667 19.2-42.667 42.667 19.2 42.667 42.667 42.667zM426.667 213.334l-170.667 170.667 60.16 60.16 110.507-110.080 281.173 281.173 60.16-60.587-341.333-341.333z" />
<glyph unicode="&#xe91e;" glyph-name="attachment" d="M85.333 405.334c0 129.707 104.96 234.667 234.667 234.667h448c94.293 0 170.667-76.373 170.667-170.667s-76.373-170.667-170.667-170.667h-362.667c-58.88 0-106.667 47.787-106.667 106.667s47.787 106.667 106.667 106.667h320v-85.333h-323.84c-23.467 0-23.467-42.667 0-42.667h366.507c46.933 0 85.333 38.4 85.333 85.333s-38.4 85.333-85.333 85.333h-448c-82.347 0-149.333-66.987-149.333-149.333s66.987-149.333 149.333-149.333h405.333v-85.333h-405.333c-129.707 0-234.667 104.96-234.667 234.667z" />
<glyph unicode="&#xe91f;" glyph-name="autorenew" d="M512 682.667v-128l170.667 170.667-170.667 170.667v-128c-188.587 0-341.333-152.747-341.333-341.333 0-66.987 19.627-129.28 52.907-181.76l62.293 62.293c-19.2 35.413-29.867 76.373-29.867 119.467 0 141.227 114.773 256 256 256zM800.427 608.427l-62.293-62.293c18.773-35.84 29.867-76.373 29.867-119.467 0-141.227-114.773-256-256-256v128l-170.667-170.667 170.667-170.667v128c188.587 0 341.333 152.747 341.333 341.333 0 66.987-19.627 129.28-52.907 181.76z" />
<glyph unicode="&#xe920;" glyph-name="book" d="M768 853.334h-512c-46.933 0-85.333-38.4-85.333-85.333v-682.667c0-46.933 38.4-85.333 85.333-85.333h512c46.933 0 85.333 38.4 85.333 85.333v682.667c0 46.933-38.4 85.333-85.333 85.333zM256 768h213.333v-341.333l-106.667 64-106.667-64v341.333z" />
<glyph unicode="&#xe921;" glyph-name="change" d="M926.891 120.576c0 0 0 468.181 0 515.413 0 64.128-58.411 58.155-58.411 58.155s-339.541-0.427-321.109 0c-20.011-0.469-29.867 10.496-29.867 10.496s-13.867 28.501-38.827 66.261c-26.197 39.595-56.491 33.109-56.491 33.109h-257.152c-71.211 0-72.021-68.523-72.021-68.523s0-562.048 0-611.371c0-76.459 57.728-66.987 57.728-66.987s679.509 0 723.029 0c61.781 0.043 53.12 63.445 53.12 63.445zM861.312 164.95c0-23.595-19.115-42.709-42.709-42.709h-617.259c-23.595 0-42.709 19.115-42.709 42.709v420.992c0 23.552 19.115 42.709 42.709 42.709h617.259c23.595 0 42.709-19.115 42.709-42.709v-420.992zM553.173 452.054h-240.768v-153.088h240.725v-63.445l176.469 140.885-176.469 139.264c0.043 0.085 0.043-63.616 0.043-63.616z" />
<glyph unicode="&#xe922;" glyph-name="check-box" d="M810.667 810.667h-597.333c-47.36 0-85.333-38.4-85.333-85.333v-597.333c0-46.933 37.973-85.333 85.333-85.333h597.333c47.36 0 85.333 38.4 85.333 85.333v597.333c0 46.933-37.973 85.333-85.333 85.333zM426.667 213.334l-213.333 213.333 60.16 60.16 153.173-152.747 323.84 323.84 60.16-60.587-384-384z" />
<glyph unicode="&#xe923;" glyph-name="check-box-outline-blank" d="M810.667 725.334v-597.333h-597.333v597.333h597.333zM810.667 810.667h-597.333c-46.933 0-85.333-38.4-85.333-85.333v-597.333c0-46.933 38.4-85.333 85.333-85.333h597.333c46.933 0 85.333 38.4 85.333 85.333v597.333c0 46.933-38.4 85.333-85.333 85.333z" />
<glyph unicode="&#xe924;" glyph-name="chevron-left" d="M657.493 622.507l-60.16 60.16-256-256 256-256 60.16 60.16-195.413 195.84z" />
<glyph unicode="&#xe925;" glyph-name="chevron-right" d="M426.667 682.667l-60.16-60.16 195.413-195.84-195.413-195.84 60.16-60.16 256 256z" />
<glyph unicode="&#xe926;" glyph-name="clear" d="M622.507 597.334l-110.507-110.507-110.507 110.507-60.16-60.16 110.507-110.507-110.507-110.507 60.16-60.16 110.507 110.507 110.507-110.507 60.16 60.16-110.507 110.507 110.507 110.507-60.16 60.16zM512 853.334c-235.947 0-426.667-190.72-426.667-426.667s190.72-426.667 426.667-426.667 426.667 190.72 426.667 426.667-190.72 426.667-426.667 426.667zM512 85.334c-188.16 0-341.333 153.173-341.333 341.333s153.173 341.333 341.333 341.333 341.333-153.173 341.333-341.333-153.173-341.333-341.333-341.333z" />
<glyph unicode="&#xe927;" glyph-name="clock" d="M511.573 853.334c-235.52 0-426.24-191.147-426.24-426.667s190.72-426.667 426.24-426.667c235.947 0 427.093 191.147 427.093 426.667s-191.147 426.667-427.093 426.667zM512 85.334c-188.587 0-341.333 152.747-341.333 341.333s152.747 341.333 341.333 341.333 341.333-152.747 341.333-341.333-152.747-341.333-341.333-341.333zM533.333 640h-64v-256l224-134.4 32 52.48-192 113.92z" />
<glyph unicode="&#xe928;" glyph-name="close" d="M810.667 665.174l-60.16 60.16-238.507-238.507-238.507 238.507-60.16-60.16 238.507-238.507-238.507-238.507 60.16-60.16 238.507 238.507 238.507-238.507 60.16 60.16-238.507 238.507z" />
<glyph unicode="&#xe929;" glyph-name="collections" d="M938.667 256v512c0 46.933-38.4 85.333-85.333 85.333h-512c-46.933 0-85.333-38.4-85.333-85.333v-512c0-46.933 38.4-85.333 85.333-85.333h512c46.933 0 85.333 38.4 85.333 85.333zM469.333 426.667l86.613-115.627 126.72 158.293 170.667-213.333h-512l128 170.667zM85.333 682.667v-597.333c0-46.933 38.4-85.333 85.333-85.333h597.333v85.333h-597.333v597.333h-85.333z" />
<glyph unicode="&#xe92a;" glyph-name="comment" d="M5.581 742.161v-435.866c0-84.429 67.738-154.726 151.142-154.726h227.584l6.963-193.28 220.621 193.28h253.645c83.354 0 152.883 68.608 152.883 154.726v435.866c0 84.429-67.738 152.934-152.883 152.934h-708.762c-83.456 0-151.194-68.506-151.194-152.934v0zM657.050 499.576c0 40.448 31.283 72.038 71.27 72.038 39.936 0 71.219-33.382 71.219-72.038 0-40.448-33.024-72.038-71.219-72.038-39.987 0-71.27 31.59-71.27 72.038v0zM439.91 499.576c0 40.448 31.232 72.038 71.219 72.038s71.219-33.382 71.219-72.038c0-40.448-33.024-72.038-71.219-72.038-39.936 0-71.219 31.59-71.219 72.038v0zM222.771 499.576c0 40.448 31.232 72.038 71.168 72.038 39.987 0 71.219-33.382 71.219-72.038 0-40.448-33.024-72.038-71.219-72.038-38.144 0-71.168 31.59-71.168 72.038v0z" />
<glyph unicode="&#xe92b;" glyph-name="contact-calendar" d="M810.667 810.667h-42.667v85.333h-85.333v-85.333h-341.333v85.333h-85.333v-85.333h-42.667c-47.36 0-85.333-38.4-85.333-85.333v-597.333c0-46.933 37.973-85.333 85.333-85.333h597.333c46.933 0 85.333 38.4 85.333 85.333v597.333c0 46.933-38.4 85.333-85.333 85.333zM512 682.667c70.827 0 128-57.173 128-128s-57.173-128-128-128-128 57.173-128 128 57.173 128 128 128zM768 170.667h-512v42.667c0 85.333 170.667 132.267 256 132.267s256-46.933 256-132.267v-42.667z" />
<glyph unicode="&#xe92c;" glyph-name="content-cut" d="M411.307 612.694c9.813 21.333 15.36 44.8 15.36 69.973 0 94.293-76.373 170.667-170.667 170.667s-170.667-76.373-170.667-170.667 76.373-170.667 170.667-170.667c25.173 0 48.64 5.547 69.973 15.36l100.693-100.693-100.693-100.693c-21.333 9.813-44.8 15.36-69.973 15.36-94.293 0-170.667-76.373-170.667-170.667s76.373-170.667 170.667-170.667 170.667 76.373 170.667 170.667c0 25.173-5.547 48.64-15.36 69.973l100.693 100.693 298.667-298.667h128v42.667l-527.36 527.36zM256 597.334c-46.933 0-85.333 37.973-85.333 85.333s38.4 85.333 85.333 85.333 85.333-37.973 85.333-85.333-38.4-85.333-85.333-85.333zM256 85.334c-46.933 0-85.333 37.973-85.333 85.333s38.4 85.333 85.333 85.333 85.333-37.973 85.333-85.333-38.4-85.333-85.333-85.333zM512 405.334c-11.947 0-21.333 9.387-21.333 21.333s9.387 21.333 21.333 21.333 21.333-9.387 21.333-21.333-9.387-21.333-21.333-21.333zM810.667 810.667l-256-256 85.333-85.333 298.667 298.667v42.667z" />
<glyph unicode="&#xe92d;" glyph-name="content-paste" d="M810.667 853.334h-178.347c-17.92 49.493-64.853 85.333-120.32 85.333s-102.4-35.84-120.32-85.333h-178.347c-46.933 0-85.333-38.4-85.333-85.333v-682.667c0-46.933 38.4-85.333 85.333-85.333h597.333c46.933 0 85.333 38.4 85.333 85.333v682.667c0 46.933-38.4 85.333-85.333 85.333zM512 853.334c23.467 0 42.667-19.2 42.667-42.667s-19.2-42.667-42.667-42.667-42.667 19.2-42.667 42.667 19.2 42.667 42.667 42.667zM810.667 85.334h-597.333v682.667h85.333v-128h426.667v128h85.333v-682.667z" />
<glyph unicode="&#xe92e;" glyph-name="copy" d="M647.125 853.334h-426.667c-47.147 0-85.333-38.187-85.333-85.333v-512c0-47.147 38.187-85.333 85.333-85.333v554.667c0 23.552 19.115 42.667 42.667 42.667h469.333c0 47.147-38.229 85.333-85.333 85.333zM817.792 682.667h-426.667c-47.147 0-85.333-38.187-85.333-85.333v-512c0-47.147 38.187-85.333 85.333-85.333h426.667c47.147 0 85.333 38.187 85.333 85.333v512c0 47.147-38.229 85.333-85.333 85.333z" />
<glyph unicode="&#xe92f;" glyph-name="create" d="M128 202.667v-160h160l471.893 471.893-160 160-471.893-471.893zM883.627 638.294c16.64 16.64 16.64 43.52 0 60.16l-99.84 99.84c-16.64 16.64-43.52 16.64-60.16 0l-78.080-78.080 160-160 78.080 78.080z" />
<glyph unicode="&#xe930;" glyph-name="create-new-folder" d="M853.333 682.667h-341.333l-85.333 85.333h-256c-47.36 0-84.907-37.973-84.907-85.333l-0.427-512c0-47.36 37.973-85.333 85.333-85.333h682.667c47.36 0 85.333 37.973 85.333 85.333v426.667c0 47.36-37.973 85.333-85.333 85.333zM810.667 341.334h-128v-128h-85.333v128h-128v85.333h128v128h85.333v-128h128v-85.333z" />
<glyph unicode="&#xe931;" glyph-name="dashboard" d="M128 384h341.333v426.667h-341.333v-426.667zM128 42.667h341.333v256h-341.333v-256zM554.667 42.667h341.333v426.667h-341.333v-426.667zM554.667 810.667v-256h341.333v256h-341.333z" />
<glyph unicode="&#xe932;" glyph-name="delete" d="M256 128c0-46.933 38.4-85.333 85.333-85.333h341.333c46.933 0 85.333 38.4 85.333 85.333v512h-512v-512zM810.667 768h-149.333l-42.667 42.667h-213.333l-42.667-42.667h-149.333v-85.333h597.333v85.333z" />
<glyph unicode="&#xe933;" glyph-name="delete-forever" d="M256 128c0-46.933 38.4-85.333 85.333-85.333h341.333c46.933 0 85.333 38.4 85.333 85.333v512h-512v-512zM360.96 431.787l60.16 60.16 90.88-90.453 90.453 90.453 60.16-60.16-90.453-90.453 90.453-90.453-60.16-60.16-90.453 90.453-90.453-90.453-60.16 60.16 90.453 90.453-90.88 90.453zM661.333 768l-42.667 42.667h-213.333l-42.667-42.667h-149.333v-85.333h597.333v85.333z" />
<glyph unicode="&#xe934;" glyph-name="description" d="M597.333 853.334h-341.333c-46.933 0-84.907-38.4-84.907-85.333l-0.427-682.667c0-46.933 37.973-85.333 84.907-85.333h512.427c46.933 0 85.333 38.4 85.333 85.333v512l-256 256zM682.667 170.667h-341.333v85.333h341.333v-85.333zM682.667 341.334h-341.333v85.333h341.333v-85.333zM554.667 554.667v234.667l234.667-234.667h-234.667z" />
<glyph unicode="&#xe935;" glyph-name="done" d="M384 247.467l-179.2 179.2-59.733-59.733 238.933-238.933 512 512-59.733 59.733-452.267-452.267z" />
<glyph unicode="&#xe936;" glyph-name="download" d="M810.667 554.667h-170.667v256h-256v-256h-170.667l298.667-298.667 298.667 298.667zM213.333 170.667v-85.333h597.333v85.333h-597.333z" />
<glyph unicode="&#xe937;" glyph-name="dynamic" d="M899.2 672h-85.333v-341.333c0-23.552-19.115-42.667-42.667-42.667h-512v-85.333c0-23.467 19.2-42.667 42.667-42.667h469.333l170.667-170.667v640c0 23.467-19.2 42.667-42.667 42.667zM728.533 416v384c0 23.467-19.2 42.667-42.667 42.667h-554.667c-23.467 0-42.667-19.2-42.667-42.667v-597.333l170.667 170.667h426.667c23.467 0 42.667 19.2 42.667 42.667z" />
<glyph unicode="&#xe938;" glyph-name="emoticon" d="M511.573 853.334c-235.52 0-426.24-191.147-426.24-426.667s190.72-426.667 426.24-426.667c235.947 0 427.093 191.147 427.093 426.667s-191.147 426.667-427.093 426.667zM512 85.334c-188.587 0-341.333 152.747-341.333 341.333s152.747 341.333 341.333 341.333 341.333-152.747 341.333-341.333-152.747-341.333-341.333-341.333zM661.333 469.334c35.413 0 64 28.587 64 64s-28.587 64-64 64-64-28.587-64-64 28.587-64 64-64zM362.667 469.334c35.413 0 64 28.587 64 64s-28.587 64-64 64-64-28.587-64-64 28.587-64 64-64zM512 192c99.413 0 183.893 62.293 218.027 149.333h-436.053c34.133-87.040 118.613-149.333 218.027-149.333z" />
<glyph unicode="&#xe939;" glyph-name="error" d="M469.333 298.667h85.333v-85.333h-85.333zM469.333 640h85.333v-256h-85.333zM511.573 853.334c-235.52 0-426.24-191.147-426.24-426.667s190.72-426.667 426.24-426.667c235.947 0 427.093 191.147 427.093 426.667s-191.147 426.667-427.093 426.667zM512 85.334c-188.587 0-341.333 152.747-341.333 341.333s152.747 341.333 341.333 341.333 341.333-152.747 341.333-341.333-152.747-341.333-341.333-341.333z" />
<glyph unicode="&#xe93a;" glyph-name="expand-less" d="M512 597.334l-256-256 60.16-60.16 195.84 195.413 195.84-195.413 60.16 60.16z" />
<glyph unicode="&#xe93b;" glyph-name="expand-more" d="M707.84 572.16l-195.84-195.413-195.84 195.413-60.16-60.16 256-256 256 256z" />
<glyph unicode="&#xe93c;" glyph-name="explore" d="M512 473.6c-26.027 0-46.933-20.907-46.933-46.933s20.907-46.933 46.933-46.933c26.027 0 46.933 20.907 46.933 46.933s-20.907 46.933-46.933 46.933zM512 853.334c-235.52 0-426.667-191.147-426.667-426.667s191.147-426.667 426.667-426.667 426.667 191.147 426.667 426.667-191.147 426.667-426.667 426.667zM605.44 333.227l-349.44-162.56 162.56 349.44 349.44 162.56-162.56-349.44z" />
<glyph unicode="&#xe93d;" glyph-name="export" d="M810.667 128h-597.333v597.333h298.667v85.333h-298.667c-47.36 0-85.333-38.4-85.333-85.333v-597.333c0-46.933 37.973-85.333 85.333-85.333h597.333c46.933 0 85.333 38.4 85.333 85.333v298.667h-85.333v-298.667zM597.333 810.667v-85.333h153.173l-419.413-419.413 60.16-60.16 419.413 419.413v-153.173h85.333v298.667h-298.667z" />
<glyph unicode="&#xe93e;" glyph-name="favorite" d="M512 27.734l-61.867 56.32c-219.733 199.253-364.8 330.667-364.8 491.947 0 131.413 103.253 234.667 234.667 234.667 74.24 0 145.493-34.56 192-89.173 46.507 54.613 117.76 89.173 192 89.173 131.413 0 234.667-103.253 234.667-234.667 0-161.28-145.067-292.693-364.8-492.373l-61.867-55.893z" />
<glyph unicode="&#xe93f;" glyph-name="favorite-border" d="M704 810.667c-74.24 0-145.493-34.56-192-89.173-46.507 54.613-117.76 89.173-192 89.173-131.413 0-234.667-103.253-234.667-234.667 0-161.28 145.067-292.693 364.8-492.373l61.867-55.893 61.867 56.32c219.733 199.253 364.8 330.667 364.8 491.947 0 131.413-103.253 234.667-234.667 234.667zM516.267 147.2l-4.267-4.267-4.267 4.267c-203.093 183.893-337.067 305.493-337.067 428.8 0 85.333 64 149.333 149.333 149.333 65.707 0 129.707-42.24 152.32-100.693h79.787c22.187 58.453 86.187 100.693 151.893 100.693 85.333 0 149.333-64 149.333-149.333 0-123.307-133.973-244.907-337.067-428.8z" />
<glyph unicode="&#xe940;" glyph-name="file" d="M509.867 601.088v256h-256c-47.147 0-85.333-38.187-85.333-85.333v-682.667c0-47.147 38.187-85.333 85.333-85.333h512c47.147 0 85.333 38.187 85.333 85.333v426.667h-256c-47.147-0.043-85.333 38.187-85.333 85.333zM595.2 558.379h256l-298.667 298.667v-256c0-23.552 19.115-42.667 42.667-42.667z" />
<glyph unicode="&#xe941;" glyph-name="filecloud" d="M851.541 681.771v0h-313.088l-26.112 37.675c-26.667 49.707-33.749 75.349-75.349 75.349h-263.808c-41.643 0-75.349-33.749-75.349-75.349v-565.333c0-41.643 33.749-75.349 75.349-75.349h678.357c41.643 0 75.349 33.749 75.349 75.349v452.267c0.043 41.685-33.707 75.392-75.349 75.392zM657.707 190.806v-0.896h-292.096v0.341c-72.704 5.376-130.091 67.541-130.091 143.573 0 74.624 55.424 136.021 126.293 143.232 20.224 56.704 78.507 97.621 147.2 97.621 85.632 0 155.008-63.531 155.008-141.952v-2.645c58.752-10.155 103.424-59.563 103.424-119.083 0.128-61.653-47.787-112.555-109.739-120.192z" />
<glyph unicode="&#xe942;" glyph-name="file-excel" d="M721.067 299.734h-426.667v-85.333h426.667v85.333zM721.067 427.734h-426.667v-85.333h426.667v85.333zM721.067 555.734h-426.667v-85.333h426.667v85.333zM806.4 854.4h-597.333c-47.147 0-85.333-38.187-85.333-85.333v-682.667c0-47.147 38.187-85.333 85.333-85.333h597.333c47.147 0 85.333 38.187 85.333 85.333v682.667c0 47.147-38.187 85.333-85.333 85.333zM763.733 171.734h-512v426.667h512v-426.667z" />
<glyph unicode="&#xe943;" glyph-name="file-pdf" d="M812.288 855.766h-597.333c-47.147 0-85.333-38.187-85.333-85.333v-682.667c0-47.147 38.187-85.333 85.333-85.333h597.333c47.147 0 85.333 38.187 85.333 85.333v682.667c0 47.147-38.229 85.333-85.333 85.333zM278.912 685.099h256c11.776 0 21.333-9.557 21.333-21.333s-9.557-21.333-21.333-21.333h-256c-11.776 0-21.333 9.557-21.333 21.333s9.557 21.333 21.333 21.333zM278.912 599.766h256c11.776 0 21.333-9.557 21.333-21.333s-9.557-21.333-21.333-21.333h-256c-11.776 0-21.333 9.557-21.333 21.333s9.557 21.333 21.333 21.333zM769.621 130.432h-512v113.365l130.133 130.133c16.683 16.683 43.691 16.683 60.331 0l97.835-97.835 55.168 55.168c16.683 16.683 43.691 16.683 60.331 0l108.203-108.203v-92.629zM748.288 471.766h-469.333c-11.776 0-21.333 9.557-21.333 21.333s9.557 21.333 21.333 21.333h469.333c11.776 0 21.333-9.557 21.333-21.333s-9.557-21.333-21.333-21.333z" />
<glyph unicode="&#xe944;" glyph-name="file-ppt" d="M726.4 553.6h-426.667v-42.667h426.667v42.667zM726.4 254.934h-426.667v-42.667h426.667v42.667zM726.4 468.267h-426.667v-170.667h426.667v170.667zM811.733 852.267h-597.333c-47.147 0-85.333-38.187-85.333-85.333v-682.667c0-47.147 38.187-85.333 85.333-85.333h597.333c47.147 0 85.333 38.187 85.333 85.333v682.667c0 47.147-38.187 85.333-85.333 85.333zM769.067 169.6h-512v426.667h512v-426.667z" />
<glyph unicode="&#xe945;" glyph-name="file-text" d="M808.021 852.779h-597.333c-47.147 0-85.333-38.187-85.333-85.333v-682.667c0-47.147 38.187-85.333 85.333-85.333h597.333c47.147 0 85.333 38.187 85.333 85.333v682.667c0 47.147-38.229 85.333-85.333 85.333zM765.355 189.611c0-10.709-8.747-19.456-19.456-19.456h-473.088c-10.709 0-19.456 8.747-19.456 19.456v3.712c0 10.709 8.747 19.456 19.456 19.456h473.045c10.709 0 19.456-8.747 19.456-19.456v-3.712zM765.355 317.611c0-10.709-8.747-19.456-19.456-19.456h-473.088c-10.709 0-19.456 8.747-19.456 19.456v3.712c0 10.709 8.747 19.456 19.456 19.456h473.045c10.709 0 19.456-8.747 19.456-19.456v-3.712zM765.355 445.611c0-10.709-8.747-19.456-19.456-19.456h-473.088c-10.709 0-19.456 8.747-19.456 19.456v3.712c0 10.709 8.747 19.456 19.456 19.456h473.045c10.709 0 19.456-8.747 19.456-19.456v-3.712zM765.355 573.611c0-10.709-8.747-19.456-19.456-19.456h-473.088c-10.709 0-19.456 8.747-19.456 19.456v3.712c0 10.709 8.747 19.456 19.456 19.456h473.045c10.709 0 19.456-8.747 19.456-19.456v-3.712z" />
<glyph unicode="&#xe946;" glyph-name="file-type" d="M853.333 384h-682.667c-23.467 0-42.667-19.2-42.667-42.667v-256c0-23.467 19.2-42.667 42.667-42.667h682.667c23.467 0 42.667 19.2 42.667 42.667v256c0 23.467-19.2 42.667-42.667 42.667zM298.667 128c-46.933 0-85.333 38.4-85.333 85.333s38.4 85.333 85.333 85.333 85.333-38.4 85.333-85.333-38.4-85.333-85.333-85.333zM853.333 810.667h-682.667c-23.467 0-42.667-19.2-42.667-42.667v-256c0-23.467 19.2-42.667 42.667-42.667h682.667c23.467 0 42.667 19.2 42.667 42.667v256c0 23.467-19.2 42.667-42.667 42.667zM298.667 554.667c-46.933 0-85.333 38.4-85.333 85.333s38.4 85.333 85.333 85.333 85.333-38.4 85.333-85.333-38.4-85.333-85.333-85.333z" />
<glyph unicode="&#xe947;" glyph-name="filter" d="M141.355 745.344h731.349v-89.557h-731.349v89.557zM432.384 294.059h-0.128v-234.709l150.016 94.464v140.245l270.336 323.968h-690.091z" />
<glyph unicode="&#xe948;" glyph-name="first-page" d="M785.493 230.827l-195.84 195.84 195.84 195.84-60.16 60.16-256-256 256-256zM256 682.667h85.333v-512h-85.333z" />
<glyph unicode="&#xe949;" glyph-name="folder" d="M426.667 768h-256c-46.933 0-84.907-38.4-84.907-85.333l-0.427-512c0-46.933 38.4-85.333 85.333-85.333h682.667c46.933 0 85.333 38.4 85.333 85.333v426.667c0 46.933-38.4 85.333-85.333 85.333h-341.333l-85.333 85.333z" />
<glyph unicode="&#xe94a;" glyph-name="folder-shared" d="M853.333 682.667h-341.333l-85.333 85.333h-256c-46.933 0-84.907-38.4-84.907-85.333l-0.427-512c0-46.933 38.4-85.333 85.333-85.333h682.667c46.933 0 85.333 38.4 85.333 85.333v426.667c0 46.933-38.4 85.333-85.333 85.333zM640 554.667c46.933 0 85.333-38.4 85.333-85.333s-38.4-85.333-85.333-85.333-85.333 38.4-85.333 85.333 38.4 85.333 85.333 85.333zM810.667 213.334h-341.333v42.667c0 56.747 113.92 85.333 170.667 85.333s170.667-28.587 170.667-85.333v-42.667z" />
<glyph unicode="&#xe94b;" glyph-name="fold-limit" d="M853.333 720h-341.333l-85.333 85.333h-256c-46.933 0-84.907-38.4-84.907-85.333l-0.427-597.333c0-46.933 38.4-85.333 85.333-85.333h682.667c46.933 0 85.333 38.4 85.333 85.333v512c0 46.933-38.4 85.333-85.333 85.333zM482.859 207.574l-183.765 181.035 61.141 60.331 122.667-120.661 181.035 178.56 61.141-60.331-242.219-238.933z" />
<glyph unicode="&#xe94c;" glyph-name="fullscreen" d="M298.667 341.334h-85.333v-213.333h213.333v85.333h-128v128zM213.333 512h85.333v128h128v85.333h-213.333v-213.333zM725.333 213.334h-128v-85.333h213.333v213.333h-85.333v-128zM597.333 725.334v-85.333h128v-128h85.333v213.333h-213.333z" />
<glyph unicode="&#xe94d;" glyph-name="fullscreen-exit" d="M213.333 256h128v-128h85.333v213.333h-213.333v-85.333zM341.333 597.334h-128v-85.333h213.333v213.333h-85.333v-128zM597.333 128h85.333v128h128v85.333h-213.333v-213.333zM682.667 597.334v128h-85.333v-213.333h213.333v85.333h-128z" />
<glyph unicode="&#xe94e;" glyph-name="grade" d="M512 201.814l263.68-159.147-69.973 299.947 232.96 201.813-306.773 26.027-119.893 282.88-119.893-282.88-306.773-26.027 232.96-201.813-69.973-299.947z" />
<glyph unicode="&#xe94f;" glyph-name="group" d="M685.867 504.534c70.827 0 127.573 57.173 127.573 128s-56.747 128-127.573 128-128-57.216-128-128c0-70.827 57.173-128 128-128zM344.533 504.534c70.827 0 127.573 57.173 127.573 128s-56.747 128-127.573 128-128-57.216-128-128c0-70.827 57.173-128 128-128zM344.533 419.2c-99.413 0-256-49.92-256-149.333v-192h512v192c0 99.413-156.587 149.333-256 149.333zM685.867 419.2c-12.373 0-26.453-0.853-41.387-2.133 49.493-35.84 41.387-84.053 41.387-147.2v-192h256v192c0 99.413-156.587 149.333-256 149.333z" />
<glyph unicode="&#xe950;" glyph-name="home" d="M426.667 85.334v256h170.667v-256h213.333v341.333h128l-426.667 384-426.667-384h128v-341.333z" />
<glyph unicode="&#xe951;" glyph-name="info" d="M512 853.334c-235.52 0-426.667-191.147-426.667-426.667s191.147-426.667 426.667-426.667 426.667 191.147 426.667 426.667-191.147 426.667-426.667 426.667zM554.667 213.334h-85.333v256h85.333v-256zM554.667 554.667h-85.333v85.333h85.333v-85.333z" />
<glyph unicode="&#xe952;" glyph-name="info-outline" d="M469.333 213.334h85.333v256h-85.333v-256zM512 853.334c-235.52 0-426.667-191.147-426.667-426.667s191.147-426.667 426.667-426.667 426.667 191.147 426.667 426.667-191.147 426.667-426.667 426.667zM512 85.334c-188.16 0-341.333 153.173-341.333 341.333s153.173 341.333 341.333 341.333 341.333-153.173 341.333-341.333-153.173-341.333-341.333-341.333zM469.333 554.667h85.333v85.333h-85.333v-85.333z" />
<glyph unicode="&#xe953;" glyph-name="label" d="M752.213 689.494c-15.36 21.76-40.96 35.84-69.547 35.84l-469.333-0.427c-46.933 0-85.333-37.973-85.333-84.907v-426.667c0-46.933 38.4-84.907 85.333-84.907l469.333-0.427c28.587 0 54.187 14.080 69.547 35.84l186.453 262.827-186.453 262.827z" />
<glyph unicode="&#xe954;" glyph-name="label-outline" d="M752.213 689.494c-15.36 21.76-40.96 35.84-69.547 35.84l-469.333-0.427c-46.933 0-85.333-37.973-85.333-84.907v-426.667c0-46.933 38.4-84.907 85.333-84.907l469.333-0.427c28.587 0 54.187 14.080 69.547 35.84l186.453 262.827-186.453 262.827zM682.667 213.334h-469.333v426.667h469.333l151.467-213.333-151.467-213.333z" />
<glyph unicode="&#xe955;" glyph-name="language" d="M511.573 853.334c-235.52 0-426.24-191.147-426.24-426.667s190.72-426.667 426.24-426.667c235.947 0 427.093 191.147 427.093 426.667s-191.147 426.667-427.093 426.667zM807.253 597.334h-125.867c-13.653 53.333-33.28 104.533-58.88 151.893 78.507-26.88 143.787-81.493 184.747-151.893zM512 766.294c35.413-51.2 63.147-107.947 81.493-168.96h-162.987c18.347 61.013 46.080 117.76 81.493 168.96zM181.76 341.334c-6.827 27.307-11.093 55.893-11.093 85.333s4.267 58.027 11.093 85.333h144.213c-3.413-28.16-5.973-56.32-5.973-85.333s2.56-57.173 5.973-85.333h-144.213zM216.747 256h125.867c13.653-53.333 33.28-104.533 58.88-151.893-78.507 26.88-143.787 81.067-184.747 151.893zM342.613 597.334h-125.867c40.96 70.827 106.24 125.013 184.747 151.893-25.6-47.36-45.227-98.56-58.88-151.893zM512 87.040c-35.413 51.2-63.147 107.947-81.493 168.96h162.987c-18.347-61.013-46.080-117.76-81.493-168.96zM611.84 341.334h-199.68c-3.84 28.16-6.827 56.32-6.827 85.333s2.987 57.6 6.827 85.333h199.68c3.84-27.733 6.827-56.32 6.827-85.333s-2.987-57.173-6.827-85.333zM622.507 104.107c25.6 47.36 45.227 98.56 58.88 151.893h125.867c-40.96-70.4-106.24-125.013-184.747-151.893zM698.027 341.334c3.413 28.16 5.973 56.32 5.973 85.333s-2.56 57.173-5.973 85.333h144.213c6.827-27.307 11.093-55.893 11.093-85.333s-4.267-58.027-11.093-85.333h-144.213z" />
<glyph unicode="&#xe956;" glyph-name="last-page" d="M238.507 622.507l195.84-195.84-195.84-195.84 60.16-60.16 256 256-256 256zM682.667 682.667h85.333v-512h-85.333z" />
<glyph unicode="&#xe957;" glyph-name="link2" d="M166.4 426.667c0 72.96 59.307 132.267 132.267 132.267h170.667v81.067h-170.667c-117.76 0-213.333-95.573-213.333-213.333s95.573-213.333 213.333-213.333h170.667v81.067h-170.667c-72.96 0-132.267 59.307-132.267 132.267zM341.333 384h341.333v85.333h-341.333v-85.333zM725.333 640h-170.667v-81.067h170.667c72.96 0 132.267-59.307 132.267-132.267s-59.307-132.267-132.267-132.267h-170.667v-81.067h170.667c117.76 0 213.333 95.573 213.333 213.333s-95.573 213.333-213.333 213.333z" />
<glyph unicode="&#xe958;" glyph-name="lock" d="M768 597.334h-42.667v85.333c0 117.76-95.573 213.333-213.333 213.333s-213.333-95.573-213.333-213.333v-85.333h-42.667c-46.933 0-85.333-38.4-85.333-85.333v-426.667c0-46.933 38.4-85.333 85.333-85.333h512c46.933 0 85.333 38.4 85.333 85.333v426.667c0 46.933-38.4 85.333-85.333 85.333zM512 213.334c-46.933 0-85.333 38.4-85.333 85.333s38.4 85.333 85.333 85.333 85.333-38.4 85.333-85.333-38.4-85.333-85.333-85.333zM644.267 597.334h-264.533v85.333c0 72.96 59.307 132.267 132.267 132.267s132.267-59.307 132.267-132.267v-85.333z" />
<glyph unicode="&#xe959;" glyph-name="mail" d="M853.333 768h-682.667c-46.933 0-84.907-38.4-84.907-85.333l-0.427-512c0-46.933 38.4-85.333 85.333-85.333h682.667c46.933 0 85.333 38.4 85.333 85.333v512c0 46.933-38.4 85.333-85.333 85.333zM853.333 597.334l-341.333-213.333-341.333 213.333v85.333l341.333-213.333 341.333 213.333v-85.333z" />
<glyph unicode="&#xe95a;" glyph-name="manage-group" d="M707.072 482.688c-13.056 0-29.269 1.323-45.013 0 13.056-67.157 3.2-156.117-11.563-204.672-20.864-68.523-168.576-157.995-168.576-157.995h450.347v203.989c0 105.643-120.235 158.677-225.195 158.677zM707.072 573.355c74.752 0 134.656 60.757 134.656 135.979 0 75.264-59.904 136.021-134.656 136.021s-135.125-60.757-135.125-136.021c0-75.221 60.373-135.979 135.125-135.979zM523.179 244.608l49.152 84.779c4.907 4.992 0 9.984-4.907 14.976l-54.059 44.885v49.877l54.059 39.893c4.907 4.992 4.907 9.984 4.907 14.976l-49.152 84.779c-4.907 4.992-9.813 9.984-14.763 4.992l-63.872-19.968c-14.72 10.027-29.44 20.011-44.203 25.003l-9.813 64.853c0 4.992-4.907 9.984-14.763 9.984h-98.261c-4.907 0-9.813-4.992-14.72-9.984l-9.856-64.853c-14.72-4.992-29.483-14.976-44.203-24.96l-63.872 24.96c-4.907 0-9.813 0-14.763-4.992l-49.109-84.779c-4.907-4.992 0-9.984 4.907-14.976l54.059-39.893v-49.877l-54.059-39.893c-4.907-9.984-4.907-14.976-4.907-19.968l49.109-84.779c4.907-4.992 9.813-9.984 14.763-4.992l68.779 19.883c14.763-9.984 29.483-19.968 44.245-24.917l9.813-64.853c-4.907-4.992 4.907-9.984 9.813-9.984h98.261c4.907 0 9.813 4.992 14.763 9.984l9.813 64.853c14.72 4.992 29.483 14.976 44.203 24.917l63.872-24.917c4.949 0 9.856 0 14.763 4.992zM326.656 314.454c-54.059 0-98.261 44.885-98.261 99.755s44.203 99.797 98.261 99.797c54.059 0 98.261-44.885 98.261-99.797 0-54.869-44.245-99.755-98.261-99.755zM462.933 34.646h469.333v85.333h-469.333v-85.333z" />
<glyph unicode="&#xe95b;" glyph-name="manager" d="M466.816 352.256c0.64-45.995 19.413-82.901 42.539-82.901s41.899 36.907 42.539 82.901c-15.189 1.451-29.739 2.432-42.539 2.432s-27.392-0.981-42.539-2.432zM636.715 341.462c-4.565-136.149-35.669-250.24-78.507-300.501 0.085 5.077 0.341 9.899 0.341 15.061 0 117.803-22.059 213.333-49.237 213.333s-49.237-95.531-49.237-213.333c0-5.163 0.256-9.984 0.341-15.061-42.837 50.261-73.941 164.309-78.507 300.501-122.624-22.827-256.597-75.307-256.597-157.44v-170.667h767.957v170.667c0.085 82.133-133.931 134.613-256.555 157.44zM509.355 440.022c117.803 0 213.333 95.531 213.333 213.333s-95.531 213.333-213.333 213.333-213.333-95.531-213.333-213.333 95.488-213.333 213.333-213.333z" />
<glyph unicode="&#xe95c;" glyph-name="member" d="M509.355 354.688c-128.171 0-384-57.173-384-170.667v-170.667h768v170.667c0 113.493-255.872 170.667-384 170.667zM509.355 440.022c117.803 0 213.333 95.531 213.333 213.333s-95.531 213.333-213.333 213.333-213.333-95.531-213.333-213.333 95.488-213.333 213.333-213.333z" />
<glyph unicode="&#xe95d;" glyph-name="menu" d="M128 170.667h768v85.333h-768v-85.333zM128 384h768v85.333h-768v-85.333zM128 682.667v-85.333h768v85.333h-768z" />
<glyph unicode="&#xe95e;" glyph-name="money" d="M512 853.334c-235.52 0-426.667-191.147-426.667-426.667s191.147-426.667 426.667-426.667 426.667 191.147 426.667 426.667-191.147 426.667-426.667 426.667zM572.16 166.827v-81.493h-113.92v82.347c-72.96 15.36-134.827 62.293-139.52 145.067h83.627c4.267-44.8 34.987-79.787 113.067-79.787 83.627 0 102.4 41.813 102.4 67.84 0 35.413-18.773 68.693-113.92 91.307-105.813 25.6-178.347 69.12-178.347 156.587 0 73.387 59.307 121.173 132.693 136.96v82.347h113.92v-83.2c79.36-19.2 119.040-79.36 121.6-144.64h-83.627c-2.133 47.36-27.307 79.787-94.72 79.787-64 0-102.4-29.013-102.4-69.973 0-35.84 27.733-59.307 113.92-81.493s178.347-59.307 178.347-166.827c-0.427-78.080-58.88-120.747-133.12-134.827z" />
<glyph unicode="&#xe95f;" glyph-name="more" d="M512 597.334c46.933 0 85.333 38.4 85.333 85.333s-38.4 85.333-85.333 85.333-85.333-38.4-85.333-85.333 38.4-85.333 85.333-85.333zM512 512c-46.933 0-85.333-38.4-85.333-85.333s38.4-85.333 85.333-85.333 85.333 38.4 85.333 85.333-38.4 85.333-85.333 85.333zM512 256c-46.933 0-85.333-38.4-85.333-85.333s38.4-85.333 85.333-85.333 85.333 38.4 85.333 85.333-38.4 85.333-85.333 85.333z" />
<glyph unicode="&#xe960;" glyph-name="movetoinbox" d="M810.667 810.667h-597.76c-47.36 0-84.48-38.4-84.48-85.333l-0.427-597.333c0-46.933 37.547-85.333 84.907-85.333h597.76c46.933 0 85.333 38.4 85.333 85.333v597.333c0 46.933-38.4 85.333-85.333 85.333zM810.667 298.667h-170.667c0-70.827-57.6-128-128-128s-128 57.173-128 128h-171.093v426.667h597.76v-426.667zM682.667 512h-85.333v128h-170.667v-128h-85.333l170.667-170.667 170.667 170.667z" />
<glyph unicode="&#xe961;" glyph-name="mydisk" d="M128 725.334v-597.333c0-46.933 37.973-85.333 85.333-85.333h597.333c46.933 0 85.333 38.4 85.333 85.333v597.333c0 46.933-38.4 85.333-85.333 85.333h-597.333c-47.36 0-85.333-38.4-85.333-85.333zM640 554.667c0-70.827-57.173-128-128-128s-128 57.173-128 128 57.173 128 128 128 128-57.173 128-128zM256 213.334c0 85.333 170.667 132.267 256 132.267s256-46.933 256-132.267v-42.667h-512v42.667z" />
<glyph unicode="&#xe962;" glyph-name="nav-back" d="M512 256v-170.667l-341.333 341.333 341.333 341.333v-170.667h341.333v-341.333h-341.333z" />
<glyph unicode="&#xe963;" glyph-name="netdisk-edit" d="M688.427 625.792l-128 128-426.667-426.667v-128h128l426.667 426.667zM816.427 753.792l-128 128-85.333-85.333 128-128 85.333 85.333zM901.76 113.792h-768c-23.552 0-42.667-19.115-42.667-42.667s19.115-42.667 42.667-42.667h768c23.552 0 42.667 19.115 42.667 42.667s-19.072 42.667-42.667 42.667z" />
<glyph unicode="&#xe964;" glyph-name="note-add" d="M597.333 853.334h-341.333c-46.933 0-84.907-38.4-84.907-85.333l-0.427-682.667c0-46.933 37.973-85.333 84.907-85.333h512.427c46.933 0 85.333 38.4 85.333 85.333v512l-256 256zM682.667 256h-128v-128h-85.333v128h-128v85.333h128v128h85.333v-128h128v-85.333zM554.667 554.667v234.667l234.667-234.667h-234.667z" />
<glyph unicode="&#xe965;" glyph-name="notifications" d="M512-0c46.933 0 85.333 38.4 85.333 85.333h-170.667c0-46.933 37.973-85.333 85.333-85.333zM768 256v213.333c0 130.987-69.973 240.64-192 269.653v29.013c0 35.413-28.587 64-64 64s-64-28.587-64-64v-29.013c-122.453-29.013-192-138.24-192-269.653v-213.333l-85.333-85.333v-42.667h682.667v42.667l-85.333 85.333z" />
<glyph unicode="&#xe966;" glyph-name="open" d="M86.955 577.067l48.256-496.085c1.579-9.131 10.539-15.915 21.12-15.915h722.475c10.752 0 19.84 6.997 21.163 16.341l40.32 495.659h-853.333zM897.621 726.4c0 11.776-9.557 21.333-21.333 21.333h-448l-42.667 42.667h-234.667c-11.776 0-21.333-9.557-21.333-21.333v-149.333h768v106.667z" />
<glyph unicode="&#xe967;" glyph-name="paixu" d="M443.085-27.119h-168.243v581.734h-224.358l392.602 370.227v-951.962zM555.315 871.902h168.243v-581.632h224.358l-392.602-370.278v951.91z" />
<glyph unicode="&#xe968;" glyph-name="person" d="M512 426.667c94.293 0 170.667 76.373 170.667 170.667s-76.373 170.667-170.667 170.667-170.667-76.373-170.667-170.667 76.373-170.667 170.667-170.667zM512 341.334c-113.92 0-341.333-57.173-341.333-170.667v-85.333h682.667v85.333c0 113.493-227.413 170.667-341.333 170.667z" />
<glyph unicode="&#xe969;" glyph-name="person-add" d="M640 426.667c94.293 0 170.667 76.373 170.667 170.667s-76.373 170.667-170.667 170.667-170.667-76.373-170.667-170.667 76.373-170.667 170.667-170.667zM256 512v128h-85.333v-128h-128v-85.333h128v-128h85.333v128h128v85.333h-128zM640 341.334c-113.92 0-341.333-57.173-341.333-170.667v-85.333h682.667v85.333c0 113.493-227.413 170.667-341.333 170.667z" />
<glyph unicode="&#xe96a;" glyph-name="photo" d="M896 128v597.333c0 46.933-38.4 85.333-85.333 85.333h-597.333c-46.933 0-85.333-38.4-85.333-85.333v-597.333c0-46.933 38.4-85.333 85.333-85.333h597.333c46.933 0 85.333 38.4 85.333 85.333zM362.667 362.667l106.667-128.427 149.333 192.427 192-256h-597.333l149.333 192z" />
<glyph unicode="&#xe96b;" glyph-name="photo-actual" d="M896 810.667h-768c-42.667 0-85.333-42.667-85.333-85.333v-597.333c0-46.933 38.4-85.333 85.333-85.333h768c42.667 0 85.333 42.667 85.333 85.333v597.333c0 42.667-42.667 85.333-85.333 85.333zM213.333 213.334l149.333 192 106.667-128.427 149.333 192.427 192-256h-597.333z" />
<glyph unicode="&#xe96c;" glyph-name="photo-library" d="M938.667 256v512c0 46.933-38.4 85.333-85.333 85.333h-512c-46.933 0-85.333-38.4-85.333-85.333v-512c0-46.933 38.4-85.333 85.333-85.333h512c46.933 0 85.333 38.4 85.333 85.333zM469.333 426.667l86.613-115.627 126.72 158.293 170.667-213.333h-512l128 170.667zM85.333 682.667v-597.333c0-46.933 38.4-85.333 85.333-85.333h597.333v85.333h-597.333v597.333h-85.333z" />
<glyph unicode="&#xe96d;" glyph-name="problem" d="M42.667 42.667h938.667l-469.333 810.667-469.333-810.667zM554.667 170.667h-85.333v85.333h85.333v-85.333zM554.667 341.334h-85.333v170.667h85.333v-170.667z" />
<glyph unicode="&#xe96e;" glyph-name="public" d="M512 853.334c-235.52 0-426.667-191.147-426.667-426.667s191.147-426.667 426.667-426.667 426.667 191.147 426.667 426.667-191.147 426.667-426.667 426.667zM469.333 88.32c-168.533 20.907-298.667 164.267-298.667 338.347 0 26.453 3.413 51.627 8.96 76.373l204.373-204.373v-42.667c0-46.933 38.4-85.333 85.333-85.333v-82.347zM763.733 196.694c-11.093 34.56-42.667 59.307-81.067 59.307h-42.667v128c0 23.467-19.2 42.667-42.667 42.667h-256v85.333h85.333c23.467 0 42.667 19.2 42.667 42.667v85.333h85.333c46.933 0 85.333 38.4 85.333 85.333v17.493c125.013-50.773 213.333-173.227 213.333-316.16 0-88.747-34.133-169.387-89.6-229.973z" />
<glyph unicode="&#xe96f;" glyph-name="radio-btn-checked" d="M512 640c-117.76 0-213.333-95.573-213.333-213.333s95.573-213.333 213.333-213.333 213.333 95.573 213.333 213.333-95.573 213.333-213.333 213.333zM512 853.334c-235.52 0-426.667-191.147-426.667-426.667s191.147-426.667 426.667-426.667 426.667 191.147 426.667 426.667-191.147 426.667-426.667 426.667zM512 85.334c-188.587 0-341.333 152.747-341.333 341.333s152.747 341.333 341.333 341.333 341.333-152.747 341.333-341.333-152.747-341.333-341.333-341.333z" />
<glyph unicode="&#xe970;" glyph-name="radio-btn-unchecked" d="M512 853.334c-235.52 0-426.667-191.147-426.667-426.667s191.147-426.667 426.667-426.667 426.667 191.147 426.667 426.667-191.147 426.667-426.667 426.667zM512 85.334c-188.587 0-341.333 152.747-341.333 341.333s152.747 341.333 341.333 341.333 341.333-152.747 341.333-341.333-152.747-341.333-341.333-341.333z" />
<glyph unicode="&#xe971;" glyph-name="recent" d="M512 853.334c-234.667 0-426.667-192-426.667-426.667s192-426.667 426.667-426.667 426.667 192 426.667 426.667-192 426.667-426.667 426.667zM691.2 247.467l-221.867 136.533v256h64v-221.867l192-115.2-34.133-55.467z" />
<glyph unicode="&#xe972;" glyph-name="refresh" d="M753.067 667.734c-61.867 61.867-146.773 100.267-241.067 100.267-188.587 0-340.907-152.747-340.907-341.333s152.32-341.333 340.907-341.333c159.147 0 291.84 108.8 329.813 256h-88.747c-34.987-99.413-129.707-170.667-241.067-170.667-141.227 0-256 114.773-256 256s114.773 256 256 256c70.827 0 133.973-29.44 180.053-75.947l-137.387-137.387h298.667v298.667l-100.267-100.267z" />
<glyph unicode="&#xe973;" glyph-name="remove-circle" d="M512 853.334c-235.52 0-426.667-191.147-426.667-426.667s191.147-426.667 426.667-426.667 426.667 191.147 426.667 426.667-191.147 426.667-426.667 426.667zM725.333 384h-426.667v85.333h426.667v-85.333z" />
<glyph unicode="&#xe974;" glyph-name="rename" d="M896 640h-170.667v115.797c0 4.224-0.896 8.277-2.304 12.203h44.971c23.467 0 42.667 19.2 42.667 42.667s-19.2 42.667-42.667 42.667h-256c-23.467 0-42.667-19.2-42.667-42.667s19.2-42.667 42.667-42.667h44.971c-1.408-3.925-2.304-7.979-2.304-12.203v-115.797h-426.667c-23.467 0-42.667-19.2-42.667-42.667v-341.333c0-23.467 19.2-42.667 42.667-42.667h426.667v-115.797c0-4.181 0.896-8.235 2.304-12.203h-44.971c-23.467 0-42.667-19.2-42.667-42.667s19.2-42.667 42.667-42.667h256c23.467 0 42.667 19.2 42.667 42.667s-19.2 42.667-42.667 42.667h-44.971c1.408 3.925 2.304 7.979 2.304 12.203v115.797h170.667c23.467 0 42.667 19.2 42.667 42.667v341.333c0 23.467-19.2 42.667-42.667 42.667zM725.333 256h-170.667v341.333h170.667v-341.333z" />
<glyph unicode="&#xe975;" glyph-name="root-sym" d="M736.263 748.082l-401.546-709.719-72.706 41.136 401.546 709.719 72.706-41.136z" />
<glyph unicode="&#xe976;" glyph-name="rotate" d="M303.36 574.72l-60.16 60.587c-38.4-49.493-62.293-106.667-69.547-165.973h86.187c5.973 37.12 20.907 73.387 43.52 105.387zM259.84 384h-86.187c7.253-59.307 30.72-116.48 69.12-165.973l60.16 60.587c-22.187 32-37.12 67.84-43.093 105.387zM302.933 157.014c49.493-38.4 107.093-61.44 166.4-68.693v86.613c-37.12 6.4-72.96 20.907-104.96 43.947l-61.44-61.867zM554.667 765.014v130.987l-194.133-194.133 194.133-189.867v166.827c121.173-20.48 213.333-125.44 213.333-252.16s-92.16-231.68-213.333-252.16v-86.187c168.533 20.907 298.667 164.267 298.667 338.347s-130.133 317.44-298.667 338.347z" />
<glyph unicode="&#xe977;" glyph-name="save" d="M725.333 810.667h-512c-47.36 0-85.333-38.4-85.333-85.333v-597.333c0-46.933 37.973-85.333 85.333-85.333h597.333c46.933 0 85.333 38.4 85.333 85.333v512l-170.667 170.667zM512 128c-70.827 0-128 57.173-128 128s57.173 128 128 128 128-57.173 128-128-57.173-128-128-128zM640 554.667h-426.667v170.667h426.667v-170.667z" />
<glyph unicode="&#xe978;" glyph-name="search" d="M661.333 341.334h-33.707l-11.947 11.52c41.813 48.64 66.987 111.787 66.987 180.48 0 153.173-124.16 277.333-277.333 277.333s-277.333-124.16-277.333-277.333 124.16-277.333 277.333-277.333c68.693 0 131.84 25.173 180.48 66.987l11.52-11.947v-33.707l213.333-212.907 63.573 63.573-212.907 213.333zM405.333 341.334c-106.24 0-192 85.76-192 192s85.76 192 192 192 192-85.76 192-192-85.76-192-192-192z" />
<glyph unicode="&#xe979;" glyph-name="send" d="M85.76 42.667l895.573 384-895.573 384-0.427-298.667 640-85.333-640-85.333z" />
<glyph unicode="&#xe97a;" glyph-name="settings" d="M829.013 384.854c1.707 13.653 2.987 27.307 2.987 41.813s-1.28 28.16-2.987 41.813l90.027 70.4c8.107 6.4 10.24 17.92 5.12 27.307l-85.333 147.627c-5.12 9.387-16.64 12.8-26.027 9.387l-106.24-42.667c-22.187 17.067-46.080 31.147-72.107 41.813l-16.213 113.067c-1.28 10.24-10.24 17.92-20.907 17.92h-170.667c-10.667 0-19.627-7.68-20.907-17.92l-16.213-113.067c-26.027-10.667-49.92-25.173-72.107-41.813l-106.24 42.667c-9.813 3.84-20.907 0-26.027-9.387l-85.333-147.627c-5.547-9.387-2.987-20.907 5.12-27.307l90.027-70.4c-1.707-13.653-2.987-27.733-2.987-41.813s1.28-28.16 2.987-41.813l-90.027-70.4c-8.107-6.4-10.24-17.92-5.12-27.307l85.333-147.627c5.12-9.387 16.64-12.8 26.027-9.387l106.24 42.667c22.187-17.067 46.080-31.147 72.107-41.813l16.213-113.067c1.28-10.24 10.24-17.92 20.907-17.92h170.667c10.667 0 19.627 7.68 20.907 17.92l16.213 113.067c26.027 10.667 49.92 25.173 72.107 41.813l106.24-42.667c9.813-3.84 20.907 0 26.027 9.387l85.333 147.627c5.12 9.387 2.987 20.907-5.12 27.307l-90.027 70.4zM512 277.334c-82.347 0-149.333 66.987-149.333 149.333s66.987 149.333 149.333 149.333 149.333-66.987 149.333-149.333-66.987-149.333-149.333-149.333z" />
<glyph unicode="&#xe97b;" glyph-name="settings-forms" d="M128 298.667h768v85.333h-768v-85.333zM128 128h597.333v85.333h-597.333v-85.333zM128 469.334h512v85.333h-512v-85.333zM128 725.334v-85.333h725.333v85.333h-725.333z" />
<glyph unicode="&#xe97c;" glyph-name="settings-industry" d="M853.333 810.667h-682.667c-46.933 0-84.907-38.4-84.907-85.333l-0.427-682.667 170.667 170.667h597.333c46.933 0 85.333 38.4 85.333 85.333v426.667c0 46.933-38.4 85.333-85.333 85.333zM512 384h-256v85.333h256v-85.333zM768 554.667h-512v85.333h512v-85.333z" />
<glyph unicode="&#xe97d;" glyph-name="settings-permission" d="M768 597.334h-42.667v85.333c0 117.76-95.573 213.333-213.333 213.333s-213.333-95.573-213.333-213.333v-85.333h-42.667c-46.933 0-85.333-38.4-85.333-85.333v-426.667c0-46.933 38.4-85.333 85.333-85.333h512c46.933 0 85.333 38.4 85.333 85.333v426.667c0 46.933-38.4 85.333-85.333 85.333zM512 213.334c-46.933 0-85.333 38.4-85.333 85.333s38.4 85.333 85.333 85.333 85.333-38.4 85.333-85.333-38.4-85.333-85.333-85.333zM644.267 597.334h-264.533v85.333c0 72.96 59.307 132.267 132.267 132.267s132.267-59.307 132.267-132.267v-85.333z" />
<glyph unicode="&#xe97e;" glyph-name="settings-resource" d="M554.667 576v-128h-384v-85.333h384v-128l170.667 170.667-170.667 170.667zM256 42.667h512c46.933 0 85.333 38.4 85.333 85.333v576c0 46.933-38.4 85.333-85.333 85.333h-512c-46.933 0-85.333-38.4-85.333-85.333v-170.667h84.907v170.667h513.28v-576h-513.28v149.333h-84.907v-149.333c0-46.933 38.4-85.333 85.333-85.333z" />
<glyph unicode="&#xe97f;" glyph-name="share" d="M768 252.587c-32.427 0-61.44-12.8-83.627-32.853l-304.213 177.067c2.133 9.813 3.84 19.627 3.84 29.867s-1.707 20.053-3.84 29.867l300.8 175.36c23.040-21.333 53.333-34.56 87.040-34.56 70.827 0 128 57.173 128 128s-57.173 128-128 128-128-57.173-128-128c0-10.24 1.707-20.053 3.84-29.867l-300.8-175.36c-23.040 21.333-53.333 34.56-87.040 34.56-70.827 0-128-57.173-128-128s57.173-128 128-128c33.707 0 64 13.227 87.040 34.56l303.787-177.493c-2.133-8.96-3.413-18.347-3.413-27.733 0-68.693 55.893-124.587 124.587-124.587s124.587 55.893 124.587 124.587-55.893 124.587-124.587 124.587z" />
<glyph unicode="&#xe980;" glyph-name="smile" d="M511.573 853.334c-235.52 0-426.24-190.72-426.24-426.667s190.72-426.667 426.24-426.667 427.093 190.72 427.093 426.667-191.147 426.667-427.093 426.667zM512 85.334c-188.587 0-341.333 152.747-341.333 341.333s152.747 341.333 341.333 341.333 341.333-152.747 341.333-341.333-152.747-341.333-341.333-341.333zM554.667 514.56l45.227-45.227 45.227 45.227 45.227-45.227 45.227 45.227-90.453 90.453zM378.88 514.56l45.227-45.227 45.227 45.227-90.453 90.453-90.453-90.453 45.227-45.227zM512 192c99.413 0 183.893 62.293 218.027 149.333h-436.053c34.133-87.040 118.613-149.333 218.027-149.333z" />
<glyph unicode="&#xe981;" glyph-name="sms" d="M853.333 853.334h-682.667c-46.933 0-84.907-38.4-84.907-85.333l-0.427-768 170.667 170.667h597.333c46.933 0 85.333 38.4 85.333 85.333v512c0 46.933-38.4 85.333-85.333 85.333zM384 469.334h-85.333v85.333h85.333v-85.333zM554.667 469.334h-85.333v85.333h85.333v-85.333zM725.333 469.334h-85.333v85.333h85.333v-85.333z" />
<glyph unicode="&#xe982;" glyph-name="sort" d="M128 170.667h256v85.333h-256v-85.333zM128 682.667v-85.333h768v85.333h-768zM128 384h512v85.333h-512v-85.333z" />
<glyph unicode="&#xe983;" glyph-name="star" d="M512 201.814l263.68-159.147-69.973 299.947 232.96 201.813-306.773 26.027-119.893 282.88-119.893-282.88-306.773-26.027 232.96-201.813-69.973-299.947z" />
<glyph unicode="&#xe984;" glyph-name="star-border" d="M938.667 544.427l-306.773 26.453-119.893 282.453-119.893-282.88-306.773-26.027 232.96-201.813-69.973-299.947 263.68 159.147 263.68-159.147-69.547 299.947 232.533 201.813zM512 281.6l-160.427-96.853 42.667 182.613-141.653 122.88 186.88 16.213 72.533 171.947 72.96-172.373 186.88-16.213-141.653-122.88 42.667-182.613-160.853 97.28z" />
<glyph unicode="&#xe985;" glyph-name="template" d="M85.333 768v-682.667h853.333v682.667h-853.333zM256 170.667h-85.333v85.333h85.333v-85.333zM256 597.334h-85.333v85.333h85.333v-85.333zM426.667 170.667h-85.333v85.333h85.333v-85.333zM426.667 597.334h-85.333v85.333h85.333v-85.333zM256 384h-85.333v85.333h85.333v-85.333zM426.667 384h-85.333v85.333h85.333v-85.333zM853.333 170.667h-341.333v512h341.333v-512zM725.333 597.334h-85.333v-85.333h85.333v85.333zM725.333 341.334h-85.333v-85.333h85.333v85.333z" />
<glyph unicode="&#xe986;" glyph-name="thumbup" d="M42.667 42.667h170.667v512h-170.667v-512zM981.333 512c0 46.933-38.4 85.333-85.333 85.333h-269.227l40.533 194.987 1.28 13.653c0 17.493-7.253 33.707-18.773 45.227l-45.227 44.8-280.747-281.173c-15.787-15.36-25.173-36.693-25.173-60.16v-426.667c0-46.933 38.4-85.333 85.333-85.333h384c35.413 0 65.707 21.333 78.507 52.053l128.853 300.8c3.84 9.813 5.973 20.053 5.973 31.147v81.493l-0.427 0.427 0.427 3.413z" />
<glyph unicode="&#xe987;" glyph-name="unarchive" d="M876.8 715.947l-59.307 71.68c-11.947 14.080-29.44 23.040-49.493 23.040h-512c-20.053 0-37.547-8.96-49.067-23.467l-59.307-71.253c-12.373-14.933-19.627-33.707-19.627-54.613v-533.333c0-46.933 37.973-85.333 85.333-85.333h597.333c46.933 0 85.333 38.4 85.333 85.333v533.333c0 20.907-7.253 39.68-19.2 54.613zM512 533.334l234.667-234.667h-149.333v-85.333h-170.667v85.333h-149.333l234.667 234.667zM218.453 725.334l34.987 42.667h512l39.68-42.667h-586.667z" />
<glyph unicode="&#xe988;" glyph-name="upload" d="M384 256h256v256h170.667l-298.667 298.667-298.667-298.667h170.667zM213.333 170.667h597.333v-85.333h-597.333z" />
<glyph unicode="&#xe989;" glyph-name="verified" d="M512 896l-384-170.667v-256c0-236.8 163.84-458.24 384-512 220.16 53.76 384 275.2 384 512v256l-384 170.667zM426.667 213.334l-170.667 170.667 60.16 60.16 110.507-110.080 281.173 281.173 60.16-60.587-341.333-341.333z" />
<glyph unicode="&#xe98a;" glyph-name="view-list" d="M128 360.875h170.667v128h-170.667v-128zM128 104.875h170.667v128h-170.667v-128zM128 616.875h170.667v128h-170.667v-128zM384 360.875h512v128h-512v-128zM384 104.875h512v128h-512v-128zM384 744.875v-128h512v128h-512z" />
<glyph unicode="&#xe98b;" glyph-name="view-module" d="M128.896 448h225.365v296.661h-225.365v-296.661zM128.896 101.846h225.365v296.704h-225.365v-296.704zM399.317 101.846h225.365v296.704h-225.365v-296.704zM669.739 101.846h225.365v296.704h-225.365v-296.704zM399.317 448h225.365v296.661h-225.365v-296.661zM669.739 744.662v-296.661h225.365v296.661h-225.365z" />
<glyph unicode="&#xe98c;" glyph-name="visibility" d="M512 746.667c-213.333 0-395.52-132.693-469.333-320 73.813-187.307 256-320 469.333-320s395.52 132.693 469.333 320c-73.813 187.307-256 320-469.333 320zM512 213.334c-117.76 0-213.333 95.573-213.333 213.333s95.573 213.333 213.333 213.333 213.333-95.573 213.333-213.333-95.573-213.333-213.333-213.333zM512 554.667c-70.827 0-128-57.173-128-128s57.173-128 128-128 128 57.173 128 128-57.173 128-128 128z" />
<glyph unicode="&#xe98d;" glyph-name="visibility-off" d="M512 640c117.76 0 213.333-95.573 213.333-213.333 0-27.733-5.547-53.76-15.36-78.080l124.587-124.587c64.427 53.76 115.2 123.307 146.347 202.667-73.813 187.307-256 320-469.333 320-59.733 0-116.907-10.667-169.813-29.867l92.16-92.16c24.32 9.813 50.347 15.36 78.080 15.36zM85.333 756.48l116.907-116.907c-70.827-55.040-126.293-128.427-159.573-212.907 73.813-187.307 256-320 469.333-320 66.133 0 129.28 12.8 186.88 35.84l17.92-17.92 125.013-124.587 54.187 54.187-756.48 756.48-54.187-54.187zM321.28 520.534l66.133-66.133c-2.133-8.96-3.413-18.347-3.413-27.733 0-70.827 57.173-128 128-128 9.387 0 18.773 1.28 27.733 3.413l66.133-66.133c-28.587-14.080-60.16-22.613-93.867-22.613-117.76 0-213.333 95.573-213.333 213.333 0 33.707 8.533 65.28 22.613 93.867zM505.173 553.814l134.4-134.4 0.853 6.827c0 70.827-57.173 128-128 128l-7.253-0.427z" />
<glyph unicode="&#xe98e;" glyph-name="vline" d="M462.208 810.667v-768h85.333v768h-85.333z" />
<glyph unicode="&#xe98f;" glyph-name="wechat" d="M360.602 852.19c-195.84 0-356.25-133.478-356.25-302.95 0-97.843 53.402-178.176 142.541-240.384l-35.635-107.213 124.518 62.464c44.595-8.858 80.333-17.92 124.774-17.92 11.162 0 22.272 0.563 33.28 1.434-6.963 23.859-11.008 48.794-11.008 74.65 0 155.546 133.632 281.856 302.899 281.856 11.52 0 22.938-0.87 34.304-2.099-30.822 143.565-184.269 250.163-359.424 250.163v0zM244.89 611.704c-26.675 0-53.658 17.869-53.658 44.595 0 26.829 26.931 44.442 53.658 44.442 26.675 0 44.493-17.664 44.493-44.442-0.051-26.726-17.818-44.595-44.493-44.595v0zM494.182 611.704c-26.726 0-53.504 17.869-53.504 44.595 0 26.829 26.778 44.442 53.504 44.442 26.829 0 44.595-17.664 44.595-44.442 0-26.726-17.766-44.595-44.595-44.595v0zM1013.146 326.571c0 142.336-142.541 258.406-302.592 258.406-169.472 0-303.002-116.070-303.002-258.406 0-142.643 133.478-258.509 303.002-258.509 35.482 0 71.219 8.909 106.854 17.869l97.741-53.504-26.778 89.037c71.526 53.658 124.774 124.774 124.774 205.107v0zM612.352 371.064c-17.766 0-35.635 17.613-35.635 35.635 0 17.766 17.92 35.686 35.635 35.686 26.931 0 44.595-17.869 44.595-35.686 0-17.971-17.664-35.635-44.595-35.635v0zM808.294 371.064c-17.613 0-35.379 17.613-35.379 35.635 0 17.766 17.766 35.686 35.379 35.686 26.675 0 44.595-17.869 44.595-35.686 0-17.971-17.92-35.635-44.595-35.635v0z" />
<glyph unicode="&#xe990;" glyph-name="atsign" d="M894.251 134.699c-46.165-48.896-101.077-84.608-164.651-107.051-63.573-22.613-130.645-33.792-201.131-33.792-67.413 0-128.896 10.667-184.149 32.043-55.253 21.248-102.613 51.029-141.653 89.088-39.211 38.059-69.547 83.669-91.221 136.832-21.632 53.163-32.256 111.104-32.256 173.909 0 62.037 11.819 119.424 35.371 172.203 23.509 52.779 55.637 98.56 96.384 137.429s88.32 69.163 142.976 91.435c54.315 21.845 112.683 32.853 174.507 32.853 53.333 0 105.131-7.723 155.179-23.211 50.261-15.445 94.677-38.869 133.547-69.76 38.869-31.104 69.76-69.76 92.971-116.309s34.816-101.291 34.816-164.053c0-46.549-6.4-87.723-19.328-123.264-12.971-35.755-30.165-65.493-51.755-89.685-21.632-24.149-46.208-42.112-74.027-54.101s-57.003-17.963-87.509-17.963c-31.317 0-56.405 7.339-75.349 22.059-18.773 14.72-28.203 33.408-28.203 55.851h-5.803c-11.819-18.56-29.739-36.309-54.101-52.949-24.363-16.597-54.101-25.088-89.472-25.088-53.333 0-94.464 17.408-123.477 52.352s-43.477 80.213-43.477 136.235c0 32.64 5.419 64.725 16.427 96.64s26.667 60.117 46.976 85.035c20.309 24.747 44.672 44.8 72.875 59.904 28.203 15.061 59.52 22.613 94.123 22.613 29.739 0 54.869-6.187 75.349-18.56 20.309-12.373 33.621-27.648 40.021-45.397h1.024l9.472 46.549h104.747l-46.165-220.117c-1.536-10.795-3.669-22.784-6.4-36.139-2.688-13.141-4.053-25.515-4.053-37.291 0-13.141 2.517-24.149 7.765-33.237 4.992-8.917 15.061-13.355 29.952-13.355 30.549 0 55.851 16.213 75.947 48.853 19.925 32.64 29.952 76.331 29.952 131.371 0 46.549-7.893 87.936-23.552 123.861-15.659 36.096-37.504 66.261-65.323 90.837-27.819 24.363-61.056 42.923-99.328 55.253-38.443 12.373-80.384 18.56-125.781 18.56-49.451 0-94.677-8.704-135.851-26.112-41.301-17.493-76.501-41.643-105.472-72.149-29.013-30.763-51.627-66.645-67.669-108.203-16.256-41.344-24.363-86.187-24.363-134.272 0-51.2 8.491-97.365 25.301-138.539s40.576-76.117 71.125-105.344c30.549-29.141 67.072-51.413 109.355-66.859 42.325-15.445 89.088-23.211 139.904-23.211 63.573 0 118.272 10.069 164.053 30.336 45.824 20.096 87.936 48.128 126.379 83.883l65.024-69.973zM526.123 558.038c-18.773 0-35.371-5.419-49.451-16.213-14.123-10.795-26.112-24.533-35.968-41.344-9.856-16.597-17.195-35.157-22.4-55.253-4.992-20.096-7.765-39.595-7.765-58.155 0-9.259 0.939-19.157 2.901-29.739 1.963-10.453 5.803-20.096 11.819-29.141 5.803-8.917 13.568-16.256 22.997-22.016 9.472-5.803 22.016-8.704 37.675-8.704 21.248 0 39.211 5.205 54.101 15.659s27.051 23.552 36.523 39.595c9.472 15.872 16.256 33.237 20.651 51.755 4.267 18.56 6.357 35.755 6.357 51.2 0 12.373-1.152 24.533-3.499 36.693-2.304 11.989-6.4 22.784-12.373 32.64-5.803 9.643-13.909 17.621-24.149 23.765-9.984 6.229-22.528 9.259-37.419 9.259v0z" />
<glyph unicode="&#xe991;" glyph-name="top" d="M889.728 853.718h-741.205v-159.445h362.795l-362.795-362.795h288.384v-327.936h164.395v327.936h288.384l-362.752 362.795h362.795z" />
<glyph unicode="&#xe992;" glyph-name="link" d="M504.021 866.646c-239.189 0-433.067-193.877-433.067-433.067s193.877-433.067 433.067-433.067 433.067 193.877 433.067 433.067c-0.043 239.232-193.92 433.067-433.067 433.067zM558.464 293.035c-32.384-34.133-64.768-68.608-100.053-99.584-43.179-37.931-93.867-44.203-146.645-21.248-51.029 22.229-82.389 72.32-82.56 127.787 0.213 38.997 13.824 72.747 41.173 100.565 30.165 30.72 60.8 61.013 91.435 91.307 14.549 14.421 32.384 15.488 44.715 3.115 12.8-12.928 11.563-29.184-3.627-44.416-29.141-29.227-58.752-58.069-87.595-87.637-35.669-36.48-37.205-85.717-4.352-118.784 31.445-31.659 83.499-31.787 116.352 0.213 29.909 29.141 59.008 59.093 88.789 88.32 17.877 17.493 45.099 11.264 49.835-12.288 1.792-8.363-1.579-21.163-7.467-27.349zM572.245 545.622c9.557 9.557 20.821 13.568 33.877 7.893 11.648-5.035 17.579-14.336 18.432-30.933-1.92-3.541-4.053-11.221-9.003-16.213-59.435-60.373-119.168-120.405-179.157-180.224-12.757-12.715-30.891-11.861-42.88 0.213-12.075 12.203-11.733 28.928 1.707 42.453 58.923 59.051 117.973 117.931 177.024 176.811zM737.792 469.376c-29.525-31.915-61.184-61.867-92.203-92.416-13.44-13.312-35.029-13.696-46.635-1.493-11.819 12.373-10.539 29.44 3.627 43.648 30.421 30.507 61.269 60.629 91.349 91.435 45.355 46.379 25.216 120.192-37.419 136.832-26.069 6.912-51.072 2.133-70.869-16.341-31.872-29.653-61.867-61.227-93.611-90.965-6.741-6.315-17.835-11.733-26.581-11.179-23.381 1.408-35.157 29.696-18.987 46.549 34.688 36.224 70.101 71.851 107.392 105.344 22.699 20.395 52.267 27.392 91.477 27.563 50.987-2.944 96.939-28.16 120.747-84.096 24.149-56.832 13.397-109.739-28.288-154.88z" />
<glyph unicode="&#xe993;" glyph-name="restore" d="M554.667 810.667c-212.053 0-384-171.947-384-384h-128l165.973-165.973 2.987-5.973 172.373 171.947h-128c0 165.12 133.547 298.667 298.667 298.667s298.667-133.547 298.667-298.667-133.547-298.667-298.667-298.667c-82.347 0-157.013 33.707-210.773 87.893l-60.587-60.587c69.547-69.547 165.12-112.64 271.36-112.64 212.053 0 384 171.947 384 384s-171.947 384-384 384z" />
<glyph unicode="&#xe994;" glyph-name="archive2" d="M876.373 715.52l-59.307 71.68c-11.52 14.507-29.013 23.467-49.067 23.467h-512c-20.053 0-37.547-8.96-49.493-23.467l-58.88-71.68c-12.373-14.507-19.627-33.707-19.627-54.187v-533.333c0-46.933 38.4-85.333 85.333-85.333h597.333c46.933 0 85.333 38.4 85.333 85.333v533.333c0 20.48-7.253 39.68-19.627 54.187zM512 192l-234.667 234.667h149.333v85.333h170.667v-85.333h149.333l-234.667-234.667zM218.453 725.334l34.56 42.667h512l40.107-42.667h-586.667z" />
<glyph unicode="&#xe995;" glyph-name="export2" d="M810.667 128h-597.333v597.333h213.333v85.333h-213.333c-47.36 0-85.333-38.4-85.333-85.333v-597.333c0-46.933 37.973-85.333 85.333-85.333h597.333c46.933 0 85.333 38.4 85.333 85.333v213.333h-85.333v-213.333zM554.667 810.667v-85.333h195.84l-419.413-419.413 60.16-60.16 419.413 419.413v-195.84h85.333v341.333h-341.333z" />
<glyph unicode="&#xe996;" glyph-name="theme" d="M512 810.667c-212.053 0-384-171.947-384-384s171.947-384 384-384c35.413 0 64 28.587 64 64 0 16.64-6.4 31.573-16.64 43.093-9.813 11.093-16.213 26.027-16.213 42.24 0 35.413 28.587 64 64 64h75.52c117.76 0 213.333 95.573 213.333 213.333 0 188.587-171.947 341.333-384 341.333zM277.333 426.667c-35.413 0-64 28.587-64 64s28.587 64 64 64 64-28.587 64-64-28.587-64-64-64zM405.333 597.334c-35.413 0-64 28.587-64 64s28.587 64 64 64 64-28.587 64-64-28.587-64-64-64zM618.667 597.334c-35.413 0-64 28.587-64 64s28.587 64 64 64 64-28.587 64-64-28.587-64-64-64zM746.667 426.667c-35.413 0-64 28.587-64 64s28.587 64 64 64 64-28.587 64-64-28.587-64-64-64z" />
<glyph unicode="&#xe997;" glyph-name="appmarket" d="M810.667 682.667h-85.333c0 117.76-95.573 213.333-213.333 213.333s-213.333-95.573-213.333-213.333h-85.333c-46.933 0-84.907-38.4-84.907-85.333l-0.427-512c0-46.933 38.4-85.333 85.333-85.333h597.333c46.933 0 85.333 38.4 85.333 85.333v512c0 46.933-38.4 85.333-85.333 85.333zM512 810.667c70.827 0 128-57.173 128-128h-256c0 70.827 57.173 128 128 128zM512 384c-117.76 0-213.333 95.573-213.333 213.333h85.333c0-70.827 57.173-128 128-128s128 57.173 128 128h85.333c0-117.76-95.573-213.333-213.333-213.333z" />
<glyph unicode="&#xe998;" glyph-name="tools" d="M968.533 128l-388.267 388.267c38.4 98.133 17.067 213.333-64 294.4-85.333 85.333-213.333 102.4-315.733 55.467l183.467-183.467-128-128-187.733 183.467c-51.2-102.4-29.867-230.4 55.467-315.733 81.067-81.067 196.267-102.4 294.4-64l388.267-388.267c17.067-17.067 42.667-17.067 59.733 0l98.133 98.133c21.333 17.067 21.333 46.933 4.267 59.733z" />
<glyph unicode="&#xe999;" glyph-name="clouddisk" d="M831.829 519.979c-31.104 147.115-159.829 257.451-314.027 257.451-113.408 0-212.096-60.288-269.227-150.4 6.955 0.853 13.781 2.091 20.907 2.091 95.915 0 175.189-77.312 189.696-178.304-37.419 72.747-108.288 121.941-189.696 121.941-18.005 0-35.371-2.773-52.096-7.296-0.427-1.152-1.067-2.176-1.493-3.285-89.685-29.355-154.581-114.517-154.581-215.125 0-116.395 86.827-212.181 198.443-224.683 9.557-2.091 19.456-3.328 29.653-3.328h475.904c17.365 0 33.835 3.627 49.237 9.472 86.272 24.064 149.675 103.765 149.675 198.571-0.043 88.363-55.125 163.541-132.395 192.896z" />
<glyph unicode="&#xe99a;" glyph-name="reply" d="M426.667 554.667v170.667l-298.667-298.667 298.667-298.667v174.933c213.333 0 362.667-68.267 469.333-217.6-42.667 213.333-170.667 426.667-469.333 469.333z" />
<glyph unicode="&#xe99b;" glyph-name="appstore" d="M515.797 539.094c23.253 0 44.8-6.955 63.104-18.603l163.627 163.627-168.533 168.533-435.499-0.299-10.581-10.581 322.517-322.517c18.731 12.501 41.173 19.84 65.365 19.84zM936.064 804.822l-320.896-320.896c11.477-18.176 18.347-39.509 18.347-62.592 0-24.192-7.339-46.635-19.84-65.323l163.584-163.584 169.557 169.557 1.024 431.104-11.776 11.733zM515.797 303.616c-24.149 0-46.592 7.339-65.28 19.797l-166.699-166.699 167.083-167.083 437.077 0.043 9.344 9.344-321.493 321.493c-17.664-10.496-38.016-16.896-60.032-16.896zM398.037 421.334c0 22.016 6.443 42.411 16.939 60.032l-166.144 166.144-164.181-164.181-0.811-439.979 7.168-7.168 324.395 324.395c-10.795 17.792-17.365 38.443-17.365 60.757z" />
<glyph unicode="&#xe99c;" glyph-name="installed" d="M810.667 810.667h-597.333c-46.933 0-85.333-38.4-85.333-85.333v-597.333c0-46.933 38.4-85.333 85.333-85.333h597.333c46.933 0 85.333 38.4 85.333 85.333v597.333c0 46.933-38.4 85.333-85.333 85.333zM597.333 213.334h-298.667v85.333h298.667v-85.333zM725.333 384h-426.667v85.333h426.667v-85.333zM725.333 554.667h-426.667v85.333h426.667v-85.333z" />
<glyph unicode="&#xe99d;" glyph-name="login" d="M810.667 807.126h-593.792c-47.147 0-85.333-38.187-85.333-85.333v-246.059h427.733l-126.592 127.104 69.163 69.163 245.333-245.333-245.333-245.333-69.163 69.163 126.592 127.104h-427.733v-249.6c0-47.147 38.187-85.333 85.333-85.333h593.792c47.147 0 85.333 38.187 85.333 85.333v593.792c0 47.104-38.187 85.333-85.333 85.333z" />
<glyph unicode="&#xe99e;" glyph-name="mail2" d="M853.333 768h-682.667c-46.933 0-84.907-38.4-84.907-85.333l-0.427-512c0-46.933 38.4-85.333 85.333-85.333h682.667c46.933 0 85.333 38.4 85.333 85.333v512c0 46.933-38.4 85.333-85.333 85.333zM853.333 597.334l-341.333-213.333-341.333 213.333v85.333l341.333-213.333 341.333 213.333v-85.333z" />
<glyph unicode="&#xe99f;" glyph-name="open2" d="M91.392 753.792v-654.251c0-51.413 42.069-93.483 93.483-93.483h654.251c51.413 0 93.483 42.069 93.483 93.483v654.251c0 51.413-42.069 93.483-93.483 93.483h-654.251c-51.413 0-93.483-42.069-93.483-93.483zM478.72 662.699h-192v-192h-96v192c0 52.821 43.179 96 96 96h192c0 0 0-96 0-96zM824.021 388.992v-194.389c0-53.461-43.733-97.195-97.195-97.195h-194.432v97.195h194.389v194.389h97.237z" />
<glyph unicode="&#xe9a0;" glyph-name="sensitive" d="M853.333 853.334h-682.667c-46.933 0-84.907-38.4-84.907-85.333l-0.427-768 170.667 170.667h597.333c46.933 0 85.333 38.4 85.333 85.333v512c0 46.933-38.4 85.333-85.333 85.333zM256 554.667h512v-85.333h-512v85.333zM597.333 341.334h-341.333v85.333h341.333v-85.333zM768 597.334h-512v85.333h512v-85.333z" />
<glyph unicode="&#xe9a1;" glyph-name="update" d="M515.797 539.094c23.253 0 44.8-6.955 63.104-18.603l163.627 163.627-168.533 168.533-435.499-0.299-10.581-10.581 322.517-322.517c18.731 12.501 41.173 19.84 65.365 19.84zM936.064 804.822l-320.896-320.896c11.477-18.176 18.347-39.509 18.347-62.592 0-24.192-7.339-46.635-19.84-65.323l163.584-163.584 169.557 169.557 1.024 431.104-11.776 11.733zM515.797 303.616c-24.149 0-46.592 7.339-65.28 19.797l-166.699-166.699 167.083-167.083 437.077 0.043 9.344 9.344-321.493 321.493c-17.664-10.496-38.016-16.896-60.032-16.896zM398.037 421.334c0 22.016 6.443 42.411 16.939 60.032l-166.144 166.144-164.181-164.181-0.811-439.979 7.168-7.168 324.395 324.395c-10.795 17.792-17.365 38.443-17.365 60.757z" />
<glyph unicode="&#xe9a2;" glyph-name="news" d="M853.333 768h-682.667c-47.36 0-84.907-37.973-84.907-85.333l-0.427-512c0-47.36 37.973-85.333 85.333-85.333h682.667c47.36 0 85.333 37.973 85.333 85.333v512c0 47.36-37.973 85.333-85.333 85.333zM572.459 170.667h-426.667v85.333h426.667v-85.333zM828.459 341.334h-682.667v85.333h682.667v-85.333zM248.661 641.28h-28.544c3.84-1.749 11.264-4.992 22.315-9.813-2.304-3.541-5.845-8.875-10.624-16.043h21.461v-23.339h-40.448v-13.525h36.651v-23.339h-36.651v-50.219c0-6.443-1.365-11.563-4.139-15.317-2.731-3.755-6.528-6.144-11.477-7.125-4.864-1.024-13.952-1.536-27.136-1.536-0.64 8.277-2.005 16.085-4.181 23.424l-4.395-9.259c-5.419 3.328-12.843 6.827-22.272 10.411 6.955 13.056 12.971 28.331 18.133 45.824l23.339-7.083c-3.755-12.544-8.192-24.747-13.355-36.437 3.413-0.256 6.827-0.427 10.197-0.427 5.291 0 7.979 3.115 8.107 9.387v38.357h-39.040v23.339h39.168v13.525h-42.539v23.339h22.4c-2.901 5.717-5.931 11.136-9.045 16.256l22.699 9.173c5.547-9.216 10.197-17.707 13.952-25.429h9.173c6.869 11.605 11.605 20.224 14.165 25.856h-69.589v23.339h37.077c-1.835 5.035-3.669 9.643-5.376 13.739l28.757 5.205c2.005-5.419 4.096-11.733 6.229-18.944h34.987v-23.339zM348.672 588.16h-15.829v-108.331h-27.52v108.331h-18.347v-11.861c0-43.947-9.515-77.483-28.544-100.608-9.429 8.192-18.176 15.147-26.24 20.821 7.936 7.040 14.123 15.744 18.56 26.155l-21.248-11.989c-4.864 10.965-10.155 21.205-15.829 30.805l20.011 9.984c4.949-6.656 10.667-16.213 17.195-28.629 5.76 13.525 8.661 29.952 8.661 49.28v93.739c31.616 3.2 57.387 8.277 77.269 15.189l11.861-27.307c-18.731-4.992-39.296-8.533-61.653-10.624v-27.691h61.653v-27.264zM389.077 656.043h27.904v-177.493h-27.904v177.493zM414.891 674.39l25.003 9.173c6.229-9.984 12.928-21.248 20.011-33.749l-26.667-10.624c-6.272 13.184-12.373 24.917-18.347 35.2zM422.827 511.062l-2.091 23.339 16.043 0.64v78.293h-11.904v22.955h117.291v-22.912h-13.739v-73.771l18.603 1.237c-0.768-8.192-1.152-15.701-1.493-22.485l-17.067-0.939v-11.861c6.656 0 11.349 0.256 13.909 0.725s4.821 1.877 6.571 4.224c1.749 2.304 2.688 5.504 2.688 9.515v127.915h-83.371v25.643h111.275v-155.221c0-11.947-2.005-20.907-6.016-26.923-3.925-6.016-9.685-9.728-17.237-11.136-7.595-1.451-19.413-2.133-35.499-2.133-1.152 6.059-2.347 11.648-3.669 16.896h-13.653v20.992l-80.64-4.992zM461.781 600.662h41.643v12.672h-41.643v-12.672zM461.781 569.174h41.643v12.715h-41.643v-12.715zM503.424 538.24v12.203h-41.643v-14.379l41.643 2.176z" />
<glyph unicode="&#xe9a3;" glyph-name="file-excel2" d="M295.125 339.542h85.333v85.333h-85.333v-85.333zM423.125 211.542h170.667v85.333h-170.667v-85.333zM295.125 467.542h85.333v85.333h-85.333v-85.333zM423.125 339.542h170.667v85.333h-170.667v-85.333zM295.125 211.542h85.333v85.333h-85.333v-85.333zM807.125 851.542h-597.333c-47.147 0-85.333-38.187-85.333-85.333v-682.667c0-47.147 38.187-85.333 85.333-85.333h597.333c47.147 0 85.333 38.187 85.333 85.333v682.667c0 47.147-38.229 85.333-85.333 85.333zM764.459 552.875v-384h-512v426.667h512v-42.667zM636.459 339.542h85.333v85.333h-85.333v-85.333zM423.125 467.542h170.667v85.333h-170.667v-85.333zM636.459 467.542h85.333v85.333h-85.333v-85.333zM636.459 211.542h85.333v85.333h-85.333v-85.333z" />
<glyph unicode="&#xe9a4;" glyph-name="file-ppt2" d="M807.125 851.542h-597.333c-47.147 0-85.333-38.187-85.333-85.333v-682.667c0-47.147 38.187-85.333 85.333-85.333h597.333c47.147 0 85.333 38.187 85.333 85.333v682.667c0 47.147-38.229 85.333-85.333 85.333zM764.459 595.542v-426.667h-512v469.333h512v-42.667zM721.792 595.542h-426.667v-384h426.667v384zM508.459 254.208c-70.699 0-128 57.301-128 128s57.301 128 128 128v-128h128c0-70.699-57.301-128-128-128zM551.125 424.875v128c70.699 0 128-57.301 128-128h-128z" />
<glyph unicode="&#xe9a5;" glyph-name="file-upload" d="M519.125 595.542v256h-256c-47.147 0-85.333-38.187-85.333-85.333v-682.667c0-47.147 38.187-85.333 85.333-85.333h512c47.147 0 85.333 38.187 85.333 85.333v426.667h-256c-47.147 0-85.333 38.229-85.333 85.333zM561.792 254.208v-170.667h-85.333v170.667h-128l170.667 170.667 170.667-170.667h-128zM604.459 552.875h256l-298.667 298.667v-256c0-23.552 19.072-42.667 42.667-42.667z" />
<glyph unicode="&#xe9a6;" glyph-name="file-word" d="M128 851.542v-853.333h768v853.333h-768zM768 168.875h-512v42.667h512v-42.667zM768 296.875h-512v42.667h512v-42.667zM768 424.875h-512v42.667h512v-42.667zM768 552.875h-512v42.667h512v-42.667z" />
<glyph unicode="&#xe9a7;" glyph-name="fold-upload" d="M864 672h-341.333l-85.333 85.333h-256c-47.147 0-85.333-38.187-85.333-85.333v-512c0-47.147 38.187-85.333 85.333-85.333h682.667c47.147 0 85.333 38.187 85.333 85.333v426.667c0 47.147-38.187 85.333-85.333 85.333zM693.333 373.334v-170.667h-85.333v170.667h-128l170.667 170.667 170.667-170.667h-128z" />
<glyph unicode="&#xe9a8;" glyph-name="layout" d="M899.541 848h-298.667c-23.552 0-42.667-19.115-42.667-42.667v-298.667c0-23.552 19.115-42.667 42.667-42.667h298.667c23.552 0 42.667 19.115 42.667 42.667v298.667c0 23.552-19.072 42.667-42.667 42.667zM430.208 848h-298.667c-23.552 0-42.667-19.115-42.667-42.667v-298.667c0-23.552 19.115-42.667 42.667-42.667h298.667c23.552 0 42.667 19.115 42.667 42.667v298.667c0 23.552-19.072 42.667-42.667 42.667zM899.541 378.667h-298.667c-23.552 0-42.667-19.115-42.667-42.667v-298.667c0-23.552 19.115-42.667 42.667-42.667h298.667c23.552 0 42.667 19.115 42.667 42.667v298.667c0 23.552-19.072 42.667-42.667 42.667zM430.208 378.667h-298.667c-23.552 0-42.667-19.115-42.667-42.667v-298.667c0-23.552 19.115-42.667 42.667-42.667h298.667c23.552 0 42.667 19.115 42.667 42.667v298.667c0 23.552-19.072 42.667-42.667 42.667z" />
<glyph unicode="&#xe9a9;" glyph-name="notification-error" d="M622.507 597.334l-110.507-110.507-110.507 110.507-60.16-60.16 110.507-110.507-110.507-110.507 60.16-60.16 110.507 110.507 110.507-110.507 60.16 60.16-110.507 110.507 110.507 110.507-60.16 60.16zM512 853.334c-235.947 0-426.667-190.72-426.667-426.667s190.72-426.667 426.667-426.667 426.667 190.72 426.667 426.667-190.72 426.667-426.667 426.667zM512 85.334c-188.16 0-341.333 153.173-341.333 341.333s153.173 341.333 341.333 341.333 341.333-153.173 341.333-341.333-153.173-341.333-341.333-341.333z" />
<glyph unicode="&#xe9aa;" glyph-name="notification-info" d="M512 853.334c-235.947 0-426.667-190.72-426.667-426.667s190.72-426.667 426.667-426.667 426.667 190.72 426.667 426.667-190.72 426.667-426.667 426.667zM512 85.334c-188.16 0-341.333 153.173-341.333 341.333s153.173 341.333 341.333 341.333 341.333-153.173 341.333-341.333-153.173-341.333-341.333-341.333zM462.208 222.208h85.333v256h-85.333v-256zM462.208 563.542h85.333v85.333h-85.333v-85.333z" />
<glyph unicode="&#xe9ab;" glyph-name="notification-success" d="M512 853.334c-235.947 0-426.667-190.72-426.667-426.667s190.72-426.667 426.667-426.667 426.667 190.72 426.667 426.667-190.72 426.667-426.667 426.667zM512 85.334c-188.16 0-341.333 153.173-341.333 341.333s153.173 341.333 341.333 341.333 341.333-153.173 341.333-341.333-153.173-341.333-341.333-341.333zM674.133 572.459l-196.267-196.267-110.933 110.933-59.733-64 170.667-170.667 256 256z" />
<glyph unicode="&#xe9ac;" glyph-name="notification-warning" d="M469.333 298.667h85.333v-85.333h-85.333zM469.333 640h85.333v-256h-85.333zM511.573 853.334c-235.52 0-426.24-191.147-426.24-426.667s190.72-426.667 426.24-426.667c235.947 0 427.093 191.147 427.093 426.667s-191.147 426.667-427.093 426.667zM512 85.334c-188.587 0-341.333 152.747-341.333 341.333s152.747 341.333 341.333 341.333 341.333-152.747 341.333-341.333-152.747-341.333-341.333-341.333z" />
<glyph unicode="&#xe9ad;" glyph-name="dzz-max" d="M810.667 768h-597.333c-47.36 0-85.333-38.4-85.333-85.333v-512c0-46.933 37.973-85.333 85.333-85.333h597.333c46.933 0 85.333 38.4 85.333 85.333v512c0 46.933-37.973 85.333-85.333 85.333zM810.667 170.667h-597.333v494.208h597.333v-494.208z" />
<glyph unicode="&#xe9ae;" glyph-name="dzz-min" d="M129.792 471.126h765.995v-103.125h-765.995v103.125z" />
</font>
</defs>
</svg>
